<?xml version="1.0" encoding="UTF-8" standalone="no"?>
<svg
   xmlns:dc="http://purl.org/dc/elements/1.1/"
   xmlns:cc="http://creativecommons.org/ns#"
   xmlns:rdf="http://www.w3.org/1999/02/22-rdf-syntax-ns#"
   xmlns:svg="http://www.w3.org/2000/svg"
   xmlns="http://www.w3.org/2000/svg"
   xmlns:xlink="http://www.w3.org/1999/xlink"
   xmlns:sodipodi="http://sodipodi.sourceforge.net/DTD/sodipodi-0.dtd"
   xmlns:inkscape="http://www.inkscape.org/namespaces/inkscape"
   width="210mm"
   height="297mm"
   viewBox="0 0 210 297"
   version="1.1"
   id="svg8"
   sodipodi:docname="5_2.svg"
   inkscape:version="1.0.2 (e86c870, 2021-01-15)">
  <defs
     id="defs2">
    <marker
       style="overflow:visible;"
       id="Arrow1Mend"
       refX="0.0"
       refY="0.0"
       orient="auto"
       inkscape:stockid="Arrow1Mend"
       inkscape:isstock="true">
      <path
         transform="scale(0.4) rotate(180) translate(10,0)"
         style="fill-rule:evenodd;stroke:#000000;stroke-width:1pt;stroke-opacity:1;fill:#000000;fill-opacity:1"
         d="M 0.0,0.0 L 5.0,-5.0 L -12.5,0.0 L 5.0,5.0 L 0.0,0.0 z "
         id="path4181" />
    </marker>
    <marker
       style="overflow:visible;"
       id="Arrow1Lend"
       refX="0.0"
       refY="0.0"
       orient="auto"
       inkscape:stockid="Arrow1Lend"
       inkscape:isstock="true">
      <path
         transform="scale(0.8) rotate(180) translate(12.5,0)"
         style="fill-rule:evenodd;stroke:#000000;stroke-width:1pt;stroke-opacity:1;fill:#000000;fill-opacity:1"
         d="M 0.0,0.0 L 5.0,-5.0 L -12.5,0.0 L 5.0,5.0 L 0.0,0.0 z "
         id="path4175" />
    </marker>
    <marker
       style="overflow:visible"
       id="marker5327"
       refX="0.0"
       refY="0.0"
       orient="auto"
       inkscape:stockid="Arrow1Lstart"
       inkscape:isstock="true">
      <path
         transform="scale(0.8) translate(12.5,0)"
         style="fill-rule:evenodd;stroke:#000000;stroke-width:1pt;stroke-opacity:1;fill:#000000;fill-opacity:1"
         d="M 0.0,0.0 L 5.0,-5.0 L -12.5,0.0 L 5.0,5.0 L 0.0,0.0 z "
         id="path5325" />
    </marker>
    <marker
       style="overflow:visible"
       id="marker5293"
       refX="0.0"
       refY="0.0"
       orient="auto"
       inkscape:stockid="Arrow1Lstart"
       inkscape:isstock="true">
      <path
         transform="scale(0.8) translate(12.5,0)"
         style="fill-rule:evenodd;stroke:#000000;stroke-width:1pt;stroke-opacity:1;fill:#000000;fill-opacity:1"
         d="M 0.0,0.0 L 5.0,-5.0 L -12.5,0.0 L 5.0,5.0 L 0.0,0.0 z "
         id="path5291" />
    </marker>
    <marker
       style="overflow:visible"
       id="Arrow1Mstart"
       refX="0.0"
       refY="0.0"
       orient="auto"
       inkscape:stockid="Arrow1Mstart"
       inkscape:isstock="true">
      <path
         transform="scale(0.4) translate(10,0)"
         style="fill-rule:evenodd;stroke:#000000;stroke-width:1.0pt"
         d="M 0.0,0.0 L 5.0,-5.0 L -12.5,0.0 L 5.0,5.0 L 0.0,0.0 z "
         id="path4178" />
    </marker>
    <marker
       style="overflow:visible"
       id="Arrow1Lstart"
       refX="0.0"
       refY="0.0"
       orient="auto"
       inkscape:stockid="Arrow1Lstart"
       inkscape:isstock="true">
      <path
         transform="scale(0.8) translate(12.5,0)"
         style="fill-rule:evenodd;stroke:#000000;stroke-width:1.0pt"
         d="M 0.0,0.0 L 5.0,-5.0 L -12.5,0.0 L 5.0,5.0 L 0.0,0.0 z "
         id="path4172" />
    </marker>
    <g
       id="g7170">
      <symbol
         overflow="visible"
         id="symbol8592">
        <path
           style="stroke:none;"
           d=""
           id="path8277" />
      </symbol>
      <symbol
         overflow="visible"
         id="symbol3277">
        <path
           style="stroke:none;"
           d="M 3.71875 -3.765625 C 3.53125 -4.140625 3.25 -4.40625 2.796875 -4.40625 C 1.640625 -4.40625 0.40625 -2.9375 0.40625 -1.484375 C 0.40625 -0.546875 0.953125 0.109375 1.71875 0.109375 C 1.921875 0.109375 2.421875 0.0625 3.015625 -0.640625 C 3.09375 -0.21875 3.453125 0.109375 3.921875 0.109375 C 4.28125 0.109375 4.5 -0.125 4.671875 -0.4375 C 4.828125 -0.796875 4.96875 -1.40625 4.96875 -1.421875 C 4.96875 -1.53125 4.875 -1.53125 4.84375 -1.53125 C 4.75 -1.53125 4.734375 -1.484375 4.703125 -1.34375 C 4.53125 -0.703125 4.359375 -0.109375 3.953125 -0.109375 C 3.671875 -0.109375 3.65625 -0.375 3.65625 -0.5625 C 3.65625 -0.78125 3.671875 -0.875 3.78125 -1.3125 C 3.890625 -1.71875 3.90625 -1.828125 4 -2.203125 L 4.359375 -3.59375 C 4.421875 -3.875 4.421875 -3.890625 4.421875 -3.9375 C 4.421875 -4.109375 4.3125 -4.203125 4.140625 -4.203125 C 3.890625 -4.203125 3.75 -3.984375 3.71875 -3.765625 Z M 3.078125 -1.1875 C 3.015625 -1 3.015625 -0.984375 2.875 -0.8125 C 2.4375 -0.265625 2.03125 -0.109375 1.75 -0.109375 C 1.25 -0.109375 1.109375 -0.65625 1.109375 -1.046875 C 1.109375 -1.546875 1.421875 -2.765625 1.65625 -3.234375 C 1.96875 -3.8125 2.40625 -4.1875 2.8125 -4.1875 C 3.453125 -4.1875 3.59375 -3.375 3.59375 -3.3125 C 3.59375 -3.25 3.578125 -3.1875 3.5625 -3.140625 Z M 3.078125 -1.1875 "
           id="path1220" />
      </symbol>
      <symbol
         overflow="visible"
         id="symbol4180">
        <path
           style="stroke:none;"
           d="M 2.375 -6.8125 C 2.375 -6.8125 2.375 -6.921875 2.25 -6.921875 C 2.03125 -6.921875 1.296875 -6.84375 1.03125 -6.8125 C 0.953125 -6.8125 0.84375 -6.796875 0.84375 -6.625 C 0.84375 -6.5 0.9375 -6.5 1.09375 -6.5 C 1.5625 -6.5 1.578125 -6.4375 1.578125 -6.328125 C 1.578125 -6.265625 1.5 -5.921875 1.453125 -5.71875 L 0.625 -2.46875 C 0.515625 -1.96875 0.46875 -1.796875 0.46875 -1.453125 C 0.46875 -0.515625 1 0.109375 1.734375 0.109375 C 2.90625 0.109375 4.140625 -1.375 4.140625 -2.8125 C 4.140625 -3.71875 3.609375 -4.40625 2.8125 -4.40625 C 2.359375 -4.40625 1.9375 -4.109375 1.640625 -3.8125 Z M 1.453125 -3.046875 C 1.5 -3.265625 1.5 -3.28125 1.59375 -3.390625 C 2.078125 -4.03125 2.53125 -4.1875 2.796875 -4.1875 C 3.15625 -4.1875 3.421875 -3.890625 3.421875 -3.25 C 3.421875 -2.65625 3.09375 -1.515625 2.90625 -1.140625 C 2.578125 -0.46875 2.125 -0.109375 1.734375 -0.109375 C 1.390625 -0.109375 1.0625 -0.375 1.0625 -1.109375 C 1.0625 -1.3125 1.0625 -1.5 1.21875 -2.125 Z M 1.453125 -3.046875 "
           id="path3273" />
      </symbol>
      <symbol
         overflow="visible"
         id="symbol4854">
        <path
           style="stroke:none;"
           d=""
           id="path6020" />
      </symbol>
      <symbol
         overflow="visible"
         id="symbol5343">
        <path
           style="stroke:none;"
           d="M 2.328125 -4.4375 C 2.328125 -4.625 2.328125 -4.625 2.125 -4.625 C 1.671875 -4.1875 1.046875 -4.1875 0.765625 -4.1875 L 0.765625 -3.9375 C 0.921875 -3.9375 1.390625 -3.9375 1.765625 -4.125 L 1.765625 -0.578125 C 1.765625 -0.34375 1.765625 -0.25 1.078125 -0.25 L 0.8125 -0.25 L 0.8125 0 C 0.9375 0 1.796875 -0.03125 2.046875 -0.03125 C 2.265625 -0.03125 3.140625 0 3.296875 0 L 3.296875 -0.25 L 3.03125 -0.25 C 2.328125 -0.25 2.328125 -0.34375 2.328125 -0.578125 Z M 2.328125 -4.4375 "
           id="path5202" />
      </symbol>
      <symbol
         overflow="visible"
         id="symbol9062">
        <path
           style="stroke:none;"
           d="M 3.515625 -1.265625 L 3.28125 -1.265625 C 3.265625 -1.109375 3.1875 -0.703125 3.09375 -0.640625 C 3.046875 -0.59375 2.515625 -0.59375 2.40625 -0.59375 L 1.125 -0.59375 C 1.859375 -1.234375 2.109375 -1.4375 2.515625 -1.765625 C 3.03125 -2.171875 3.515625 -2.609375 3.515625 -3.265625 C 3.515625 -4.109375 2.78125 -4.625 1.890625 -4.625 C 1.03125 -4.625 0.4375 -4.015625 0.4375 -3.375 C 0.4375 -3.03125 0.734375 -2.984375 0.8125 -2.984375 C 0.96875 -2.984375 1.171875 -3.109375 1.171875 -3.359375 C 1.171875 -3.484375 1.125 -3.734375 0.765625 -3.734375 C 0.984375 -4.21875 1.453125 -4.375 1.78125 -4.375 C 2.484375 -4.375 2.84375 -3.828125 2.84375 -3.265625 C 2.84375 -2.65625 2.40625 -2.1875 2.1875 -1.9375 L 0.515625 -0.265625 C 0.4375 -0.203125 0.4375 -0.1875 0.4375 0 L 3.3125 0 Z M 3.515625 -1.265625 "
           id="path2133" />
      </symbol>
      <symbol
         overflow="visible"
         id="symbol4307">
        <path
           style="stroke:none;"
           d="M 1.90625 -2.328125 C 2.453125 -2.328125 2.84375 -1.953125 2.84375 -1.203125 C 2.84375 -0.34375 2.328125 -0.078125 1.9375 -0.078125 C 1.65625 -0.078125 1.03125 -0.15625 0.75 -0.578125 C 1.078125 -0.578125 1.15625 -0.8125 1.15625 -0.96875 C 1.15625 -1.1875 0.984375 -1.34375 0.765625 -1.34375 C 0.578125 -1.34375 0.375 -1.21875 0.375 -0.9375 C 0.375 -0.28125 1.09375 0.140625 1.9375 0.140625 C 2.90625 0.140625 3.578125 -0.515625 3.578125 -1.203125 C 3.578125 -1.75 3.140625 -2.296875 2.375 -2.453125 C 3.09375 -2.71875 3.359375 -3.234375 3.359375 -3.671875 C 3.359375 -4.21875 2.734375 -4.625 1.953125 -4.625 C 1.1875 -4.625 0.59375 -4.25 0.59375 -3.6875 C 0.59375 -3.453125 0.75 -3.328125 0.953125 -3.328125 C 1.171875 -3.328125 1.3125 -3.484375 1.3125 -3.671875 C 1.3125 -3.875 1.171875 -4.03125 0.953125 -4.046875 C 1.203125 -4.34375 1.671875 -4.421875 1.9375 -4.421875 C 2.25 -4.421875 2.6875 -4.265625 2.6875 -3.671875 C 2.6875 -3.375 2.59375 -3.046875 2.40625 -2.84375 C 2.1875 -2.578125 1.984375 -2.5625 1.640625 -2.53125 C 1.46875 -2.515625 1.453125 -2.515625 1.421875 -2.515625 C 1.40625 -2.515625 1.34375 -2.5 1.34375 -2.421875 C 1.34375 -2.328125 1.40625 -2.328125 1.53125 -2.328125 Z M 1.90625 -2.328125 "
           id="path2266" />
      </symbol>
    </g>
    <filter
       inkscape:collect="always"
       style="color-interpolation-filters:sRGB"
       id="filter5495"
       x="-2.7804873e-05"
       width="1.0000556"
       y="-3.2571438e-05"
       height="1.0000651">
      <feGaussianBlur
         inkscape:collect="always"
         stdDeviation="4.4884676e-05"
         id="feGaussianBlur5497" />
    </filter>
    <marker
       style="overflow:visible"
       id="Arrow1Mend-4"
       refX="0"
       refY="0"
       orient="auto"
       inkscape:stockid="Arrow1Mend"
       inkscape:isstock="true">
      <path
         transform="matrix(-0.4,0,0,-0.4,-4,0)"
         style="fill:#000000;fill-opacity:1;fill-rule:evenodd;stroke:#000000;stroke-width:1pt;stroke-opacity:1"
         d="M 0,0 5,-5 -12.5,0 5,5 Z"
         id="path4181-4" />
    </marker>
    <filter
       inkscape:collect="always"
       style="color-interpolation-filters:sRGB"
       id="filter5495-7"
       x="-2.7804874e-05"
       width="1.0000556"
       y="-3.2571439e-05"
       height="1.0000651">
      <feGaussianBlur
         inkscape:collect="always"
         stdDeviation="4.4884676e-05"
         id="feGaussianBlur5497-8" />
    </filter>
    <marker
       style="overflow:visible"
       id="Arrow1Mend-7"
       refX="0"
       refY="0"
       orient="auto"
       inkscape:stockid="Arrow1Mend"
       inkscape:isstock="true">
      <path
         transform="matrix(-0.4,0,0,-0.4,-4,0)"
         style="fill:#000000;fill-opacity:1;fill-rule:evenodd;stroke:#000000;stroke-width:1pt;stroke-opacity:1"
         d="M 0,0 5,-5 -12.5,0 5,5 Z"
         id="path4181-5" />
    </marker>
    <filter
       inkscape:collect="always"
       style="color-interpolation-filters:sRGB"
       id="filter5495-5"
       x="-2.7804874e-05"
       width="1.0000556"
       y="-3.2571439e-05"
       height="1.0000651">
      <feGaussianBlur
         inkscape:collect="always"
         stdDeviation="4.4884676e-05"
         id="feGaussianBlur5497-7" />
    </filter>
    <marker
       style="overflow:visible"
       id="Arrow1Mend-9"
       refX="0"
       refY="0"
       orient="auto"
       inkscape:stockid="Arrow1Mend"
       inkscape:isstock="true">
      <path
         transform="matrix(-0.4,0,0,-0.4,-4,0)"
         style="fill:#000000;fill-opacity:1;fill-rule:evenodd;stroke:#000000;stroke-width:1pt;stroke-opacity:1"
         d="M 0,0 5,-5 -12.5,0 5,5 Z"
         id="path4181-47" />
    </marker>
    <filter
       inkscape:collect="always"
       style="color-interpolation-filters:sRGB"
       id="filter5495-4"
       x="-2.7804874e-05"
       width="1.0000556"
       y="-3.2571439e-05"
       height="1.0000651">
      <feGaussianBlur
         inkscape:collect="always"
         stdDeviation="4.4884676e-05"
         id="feGaussianBlur5497-1" />
    </filter>
  </defs>
  <sodipodi:namedview
     id="base"
     pagecolor="#ffffff"
     bordercolor="#666666"
     borderopacity="1.0"
     inkscape:pageopacity="0.0"
     inkscape:pageshadow="2"
     inkscape:zoom="2.8"
     inkscape:cx="239.15099"
     inkscape:cy="334.50312"
     inkscape:document-units="mm"
     inkscape:current-layer="layer1"
     inkscape:document-rotation="0"
     showgrid="false"
     inkscape:snap-grids="false"
     inkscape:window-width="1920"
     inkscape:window-height="1017"
     inkscape:window-x="-8"
     inkscape:window-y="-8"
     inkscape:window-maximized="1" />
  <metadata
     id="metadata5">
    <rdf:RDF>
      <cc:Work
         rdf:about="">
        <dc:format>image/svg+xml</dc:format>
        <dc:type
           rdf:resource="http://purl.org/dc/dcmitype/StillImage" />
        <dc:title></dc:title>
      </cc:Work>
    </rdf:RDF>
  </metadata>
  <g
     inkscape:label="Layer 1"
     inkscape:groupmode="layer"
     id="layer1">
    <path
       style="fill:none;stroke:#000000;stroke-width:0.208253px;stroke-linecap:butt;stroke-linejoin:miter;stroke-opacity:1"
       d="m 53.00251,74.725092 h 8.676752 21.790059"
       id="path4456-8"
       sodipodi:nodetypes="ccc" />
    <path
       style="fill:none;stroke:#000000;stroke-width:0.19383px;stroke-linecap:butt;stroke-linejoin:miter;stroke-opacity:1"
       d="M 58.264756,69.725091 V 96.117947"
       id="path4456" />
    <path
       style="fill:none;stroke:#000000;stroke-width:0.208253px;stroke-linecap:butt;stroke-linejoin:miter;stroke-opacity:1"
       d="m 53.002509,79.704439 h 8.676753 21.790059"
       id="path4456-8-63"
       sodipodi:nodetypes="ccc" />
    <path
       style="fill:none;stroke:#000000;stroke-width:0.208253px;stroke-linecap:butt;stroke-linejoin:miter;stroke-opacity:1"
       d="M 53.002509,84.683787 H 61.679262 83.46932"
       id="path4456-8-5"
       sodipodi:nodetypes="ccc" />
    <path
       style="fill:none;stroke:#000000;stroke-width:0.208253px;stroke-linecap:butt;stroke-linejoin:miter;stroke-opacity:1"
       d="M 53.002509,89.663134 H 61.679262 83.46932"
       id="path4456-8-69"
       sodipodi:nodetypes="ccc" />
    <path
       style="fill:none;stroke:#000000;stroke-width:0.19383px;stroke-linecap:butt;stroke-linejoin:miter;stroke-opacity:1"
       d="M 63.914423,69.725092 V 96.117947"
       id="path4456-6" />
    <path
       style="fill:none;stroke:#000000;stroke-width:0.19383px;stroke-linecap:butt;stroke-linejoin:miter;stroke-opacity:1"
       d="M 69.564095,69.725089 V 96.117947"
       id="path4456-0" />
    <path
       style="fill:none;stroke:#000000;stroke-width:0.19383px;stroke-linecap:butt;stroke-linejoin:miter;stroke-opacity:1"
       d="M 75.213766,69.72509 V 96.117947"
       id="path4456-67" />
    <path
       style="fill:none;stroke:#000000;stroke-width:0.259771px;stroke-linecap:butt;stroke-linejoin:miter;stroke-opacity:1"
       d="M 58.304528,74.746492 53.292942,69.35693"
       id="path5047"
       sodipodi:nodetypes="cc" />
    <text
       xml:space="preserve"
       style="font-size:3.52778px;line-height:1.25;font-family:sans-serif;stroke-width:0.264583"
       x="53.430977"
       y="74.100479"
       id="text5051"><tspan
         sodipodi:role="line"
         id="tspan5049"
         x="53.430977"
         y="74.100479"
         style="font-size:3.52778px;stroke-width:0.264583">A</tspan></text>
    <text
       xml:space="preserve"
       style="font-size:3.52778px;line-height:1.25;font-family:sans-serif;stroke-width:0.264583"
       x="55.71423"
       y="71.823936"
       id="text5055"><tspan
         sodipodi:role="line"
         id="tspan5053"
         x="55.71423"
         y="71.823936"
         style="font-size:3.52778px;stroke-width:0.264583">B</tspan></text>
    <g
       id="g5249"
       transform="translate(1.2027129,-31.1369)">
      <g
         style="fill:#000000;fill-opacity:1"
         id="g6802"
         transform="matrix(0.5,0,0,0.5,5.9266641,68.384663)">
        <use
           xlink:href="#symbol3277"
           x="91.925003"
           y="81.962997"
           id="use8681"
           width="100%"
           height="100%" />
      </g>
      <g
         style="fill:#000000;fill-opacity:1"
         id="g5591"
         transform="matrix(0.5,0,0,0.5,5.9266641,68.384663)">
        <use
           xlink:href="#symbol5343"
           x="97.191002"
           y="83.457001"
           id="use4277"
           width="100%"
           height="100%" />
      </g>
    </g>
    <g
       id="g5255"
       transform="translate(-3.6081386,-26.326048)">
      <g
         style="fill:#000000;fill-opacity:1"
         id="g8953"
         transform="matrix(0.5,0,0,0.5,5.9266641,68.384663)">
        <use
           xlink:href="#symbol3277"
           x="101.661"
           y="81.962997"
           id="use9565"
           width="100%"
           height="100%" />
      </g>
      <g
         style="fill:#000000;fill-opacity:1"
         id="g8424"
         transform="matrix(0.5,0,0,0.5,5.9266641,68.384663)">
        <use
           xlink:href="#symbol9062"
           x="106.927"
           y="83.457001"
           id="use7508"
           width="100%"
           height="100%" />
      </g>
    </g>
    <g
       id="g5261"
       transform="translate(-8.5526249,-21.247927)">
      <g
         style="fill:#000000;fill-opacity:1"
         id="g4285"
         transform="matrix(0.5,0,0,0.5,5.9266641,68.384663)">
        <use
           xlink:href="#symbol3277"
           x="111.396"
           y="81.962997"
           id="use500"
           width="100%"
           height="100%" />
      </g>
      <g
         style="fill:#000000;fill-opacity:1"
         id="g1103"
         transform="matrix(0.5,0,0,0.5,5.9266641,68.384663)">
        <use
           xlink:href="#symbol4307"
           x="116.662"
           y="83.457001"
           id="use1827"
           width="100%"
           height="100%" />
      </g>
    </g>
    <g
       id="g5267"
       transform="translate(-7.0826425,-35.814117)">
      <g
         style="fill:#000000;fill-opacity:1"
         id="g9395"
         transform="matrix(0.5,0,0,0.5,5.9266641,68.384663)">
        <use
           xlink:href="#symbol4180"
           x="121.132"
           y="81.962997"
           id="use6880"
           width="100%"
           height="100%" />
      </g>
      <g
         style="fill:#000000;fill-opacity:1"
         id="g7707"
         transform="matrix(0.5,0,0,0.5,5.9266641,68.384663)">
        <use
           xlink:href="#symbol5343"
           x="125.407"
           y="83.457001"
           id="use8891"
           width="100%"
           height="100%" />
      </g>
    </g>
    <g
       id="g5273"
       transform="translate(-6.2808339,-35.947751)">
      <g
         style="fill:#000000;fill-opacity:1"
         id="g7785"
         transform="matrix(0.5,0,0,0.5,5.9266641,68.384663)">
        <use
           xlink:href="#symbol4180"
           x="129.877"
           y="81.962997"
           id="use3268"
           width="100%"
           height="100%" />
      </g>
      <g
         style="fill:#000000;fill-opacity:1"
         id="g4636"
         transform="matrix(0.5,0,0,0.5,5.9266641,68.384663)">
        <use
           xlink:href="#symbol9062"
           x="134.15199"
           y="83.457001"
           id="use3967"
           width="100%"
           height="100%" />
      </g>
    </g>
    <g
       id="g5279"
       transform="translate(-4.9444863,-35.947751)">
      <g
         style="fill:#000000;fill-opacity:1"
         id="g8509"
         transform="matrix(0.5,0,0,0.5,5.9266641,68.384663)">
        <use
           xlink:href="#symbol4180"
           x="138.62199"
           y="81.962997"
           id="use8408"
           width="100%"
           height="100%" />
      </g>
      <g
         style="fill:#000000;fill-opacity:1"
         id="g8147"
         transform="matrix(0.5,0,0,0.5,5.9266641,68.384663)">
        <use
           xlink:href="#symbol4307"
           x="142.897"
           y="83.457001"
           id="use3512"
           width="100%"
           height="100%" />
      </g>
    </g>
    <text
       xml:space="preserve"
       style="font-size:2.82222px;line-height:1.25;font-family:sans-serif;stroke-width:0.264583"
       x="78.922791"
       y="72.635246"
       id="text5283"><tspan
         id="tspan5281"
         x="78.922791"
         y="72.635246"
         style="font-size:2.82222px;stroke-width:0.264583"
         sodipodi:role="line">...</tspan></text>
    <text
       xml:space="preserve"
       style="font-size:4.9389px;line-height:1.25;font-family:sans-serif;stroke-width:0.264583"
       x="53.94096"
       y="93.119545"
       id="text5287"><tspan
         sodipodi:role="line"
         id="tspan5285"
         x="53.94096"
         y="93.119545"
         style="font-size:2.82222px;stroke-width:0.264583">...</tspan></text>
    <path
       style="fill:none;stroke:#000000;stroke-width:0.264583px;stroke-linecap:butt;stroke-linejoin:miter;stroke-opacity:1;marker-end:url(#Arrow1Mend);filter:url(#filter5495)"
       d="M 63.216517,75.311756 59.34226,78.619047"
       id="path5289" />
    <path
       style="fill:none;stroke:#000000;stroke-width:0.264583px;stroke-linecap:butt;stroke-linejoin:miter;stroke-opacity:1;marker-end:url(#Arrow1Mend-4);filter:url(#filter5495-7)"
       d="M 68.555432,75.453498 58.822544,84.14695"
       id="path5289-1"
       sodipodi:nodetypes="cc" />
    <path
       style="fill:none;stroke:#000000;stroke-width:0.264583px;stroke-linecap:butt;stroke-linejoin:miter;stroke-opacity:1;marker-end:url(#Arrow1Mend-7);filter:url(#filter5495-5)"
       d="M 74.508557,75.170015 58.917038,89.155133"
       id="path5289-8"
       sodipodi:nodetypes="cc" />
    <path
       style="fill:none;stroke:#000000;stroke-width:0.264583px;stroke-linecap:butt;stroke-linejoin:miter;stroke-opacity:1;marker-end:url(#Arrow1Mend-9);filter:url(#filter5495-4)"
       d="M 80.508928,75.311756 59.153272,93.738095"
       id="path5289-7"
       sodipodi:nodetypes="cc" />
    <text
       xml:space="preserve"
       style="font-size:1.41111px;line-height:1.25;font-family:sans-serif;stroke-width:0.264583"
       x="59.53125"
       y="76.351196"
       id="text5876"><tspan
         sodipodi:role="line"
         id="tspan5874"
         x="59.53125"
         y="76.351196"
         style="stroke-width:0.264583">1</tspan></text>
    <text
       xml:space="preserve"
       style="font-size:1.41111px;line-height:1.25;font-family:sans-serif;stroke-width:0.264583"
       x="65.673363"
       y="76.540176"
       id="text5880"><tspan
         sodipodi:role="line"
         id="tspan5878"
         x="65.673363"
         y="76.540176"
         style="stroke-width:0.264583">2</tspan></text>
    <text
       xml:space="preserve"
       style="font-size:1.41111px;line-height:1.25;font-family:sans-serif;stroke-width:0.264583"
       x="59.909225"
       y="81.359383"
       id="text5884"><tspan
         sodipodi:role="line"
         id="tspan5882"
         x="59.909225"
         y="81.359383"
         style="stroke-width:0.264583">3</tspan></text>
    <text
       xml:space="preserve"
       style="font-size:1.41111px;line-height:1.25;font-family:sans-serif;stroke-width:0.264583"
       x="71.4375"
       y="76.256699"
       id="text5888"><tspan
         sodipodi:role="line"
         id="tspan5886"
         x="71.4375"
         y="76.256699"
         style="stroke-width:0.264583">4</tspan></text>
    <text
       xml:space="preserve"
       style="font-size:1.41111px;line-height:1.25;font-family:sans-serif;stroke-width:0.264583"
       x="65.956841"
       y="81.264877"
       id="text5892"><tspan
         sodipodi:role="line"
         id="tspan5890"
         x="65.956841"
         y="81.264877"
         style="stroke-width:0.264583">5</tspan></text>
    <text
       xml:space="preserve"
       style="font-size:1.41111px;line-height:1.25;font-family:sans-serif;stroke-width:0.264583"
       x="60.192707"
       y="86.084076"
       id="text5896"><tspan
         sodipodi:role="line"
         id="tspan5894"
         x="60.192707"
         y="86.084076"
         style="stroke-width:0.264583">6</tspan></text>
    <text
       xml:space="preserve"
       style="font-size:1.41111px;line-height:1.25;font-family:sans-serif;stroke-width:0.264583"
       x="77.01265"
       y="76.445679"
       id="text5900"><tspan
         sodipodi:role="line"
         id="tspan5898"
         x="77.01265"
         y="76.445679"
         style="stroke-width:0.264583">7</tspan></text>
    <text
       xml:space="preserve"
       style="font-size:1.41111px;line-height:1.25;font-family:sans-serif;stroke-width:0.264583"
       x="71.720985"
       y="81.264877"
       id="text5904"><tspan
         sodipodi:role="line"
         id="tspan5902"
         x="71.720985"
         y="81.264877"
         style="stroke-width:0.264583">8</tspan></text>
    <text
       xml:space="preserve"
       style="font-size:1.41111px;line-height:1.25;font-family:sans-serif;stroke-width:0.264583"
       x="66.051338"
       y="86.084076"
       id="text5908"><tspan
         sodipodi:role="line"
         id="tspan5906"
         x="66.051338"
         y="86.084076"
         style="stroke-width:0.264583">9</tspan></text>
    <text
       xml:space="preserve"
       style="font-size:1.41111px;line-height:1.25;font-family:sans-serif;stroke-width:0.264583"
       x="60.003716"
       y="91.28125"
       id="text5912"><tspan
         sodipodi:role="line"
         id="tspan5910"
         x="60.003716"
         y="91.28125"
         style="stroke-width:0.264583">10</tspan></text>
  </g>
</svg>
