<?xml version="1.0" encoding="UTF-8" standalone="no"?>
<svg
   xmlns:dc="http://purl.org/dc/elements/1.1/"
   xmlns:cc="http://creativecommons.org/ns#"
   xmlns:rdf="http://www.w3.org/1999/02/22-rdf-syntax-ns#"
   xmlns:svg="http://www.w3.org/2000/svg"
   xmlns="http://www.w3.org/2000/svg"
   xmlns:xlink="http://www.w3.org/1999/xlink"
   xmlns:sodipodi="http://sodipodi.sourceforge.net/DTD/sodipodi-0.dtd"
   xmlns:inkscape="http://www.inkscape.org/namespaces/inkscape"
   width="210mm"
   height="297mm"
   viewBox="0 0 210 297"
   version="1.1"
   id="svg8"
   sodipodi:docname="7_2.svg"
   inkscape:version="1.0.2 (e86c870, 2021-01-15)">
  <defs
     id="defs2">
    <marker
       style="overflow:visible;"
       id="Arrow1Mend"
       refX="0.0"
       refY="0.0"
       orient="auto"
       inkscape:stockid="Arrow1Mend"
       inkscape:isstock="true">
      <path
         transform="scale(0.4) rotate(180) translate(10,0)"
         style="fill-rule:evenodd;stroke:#2b0000;stroke-width:1pt;stroke-opacity:1;fill:#000000;fill-opacity:1"
         d="M 0.0,0.0 L 5.0,-5.0 L -12.5,0.0 L 5.0,5.0 L 0.0,0.0 z "
         id="path846" />
    </marker>
    <g
       id="g3894">
      <symbol
         overflow="visible"
         id="symbol5329">
        <path
           style="stroke:none;"
           d=""
           id="path2635" />
      </symbol>
      <symbol
         overflow="visible"
         id="symbol5535">
        <path
           style="stroke:none;"
           d="M 3.71875 -3.765625 C 3.53125 -4.140625 3.25 -4.40625 2.796875 -4.40625 C 1.640625 -4.40625 0.40625 -2.9375 0.40625 -1.484375 C 0.40625 -0.546875 0.953125 0.109375 1.71875 0.109375 C 1.921875 0.109375 2.421875 0.0625 3.015625 -0.640625 C 3.09375 -0.21875 3.453125 0.109375 3.921875 0.109375 C 4.28125 0.109375 4.5 -0.125 4.671875 -0.4375 C 4.828125 -0.796875 4.96875 -1.40625 4.96875 -1.421875 C 4.96875 -1.53125 4.875 -1.53125 4.84375 -1.53125 C 4.75 -1.53125 4.734375 -1.484375 4.703125 -1.34375 C 4.53125 -0.703125 4.359375 -0.109375 3.953125 -0.109375 C 3.671875 -0.109375 3.65625 -0.375 3.65625 -0.5625 C 3.65625 -0.78125 3.671875 -0.875 3.78125 -1.3125 C 3.890625 -1.71875 3.90625 -1.828125 4 -2.203125 L 4.359375 -3.59375 C 4.421875 -3.875 4.421875 -3.890625 4.421875 -3.9375 C 4.421875 -4.109375 4.3125 -4.203125 4.140625 -4.203125 C 3.890625 -4.203125 3.75 -3.984375 3.71875 -3.765625 Z M 3.078125 -1.1875 C 3.015625 -1 3.015625 -0.984375 2.875 -0.8125 C 2.4375 -0.265625 2.03125 -0.109375 1.75 -0.109375 C 1.25 -0.109375 1.109375 -0.65625 1.109375 -1.046875 C 1.109375 -1.546875 1.421875 -2.765625 1.65625 -3.234375 C 1.96875 -3.8125 2.40625 -4.1875 2.8125 -4.1875 C 3.453125 -4.1875 3.59375 -3.375 3.59375 -3.3125 C 3.59375 -3.25 3.578125 -3.1875 3.5625 -3.140625 Z M 3.078125 -1.1875 "
           id="path7481" />
      </symbol>
      <symbol
         overflow="visible"
         id="symbol2982">
        <path
           style="stroke:none;"
           d=""
           id="path482" />
      </symbol>
      <symbol
         overflow="visible"
         id="symbol4369">
        <path
           style="stroke:none;"
           d="M 0.84375 -0.4375 C 0.828125 -0.34375 0.78125 -0.171875 0.78125 -0.15625 C 0.78125 0 0.90625 0.0625 1.015625 0.0625 C 1.140625 0.0625 1.25 -0.015625 1.296875 -0.078125 C 1.328125 -0.140625 1.375 -0.375 1.421875 -0.515625 C 1.453125 -0.640625 1.53125 -0.96875 1.5625 -1.140625 C 1.609375 -1.296875 1.65625 -1.453125 1.6875 -1.609375 C 1.765625 -1.890625 1.78125 -1.953125 1.984375 -2.234375 C 2.171875 -2.515625 2.5 -2.875 3.03125 -2.875 C 3.421875 -2.875 3.4375 -2.515625 3.4375 -2.390625 C 3.4375 -1.96875 3.140625 -1.203125 3.03125 -0.90625 C 2.953125 -0.703125 2.921875 -0.640625 2.921875 -0.53125 C 2.921875 -0.15625 3.21875 0.0625 3.578125 0.0625 C 4.28125 0.0625 4.578125 -0.890625 4.578125 -1 C 4.578125 -1.09375 4.5 -1.09375 4.46875 -1.09375 C 4.375 -1.09375 4.375 -1.046875 4.34375 -0.96875 C 4.1875 -0.40625 3.875 -0.125 3.609375 -0.125 C 3.453125 -0.125 3.421875 -0.21875 3.421875 -0.375 C 3.421875 -0.53125 3.46875 -0.625 3.59375 -0.9375 C 3.671875 -1.15625 3.953125 -1.890625 3.953125 -2.28125 C 3.953125 -2.953125 3.421875 -3.078125 3.046875 -3.078125 C 2.46875 -3.078125 2.078125 -2.71875 1.875 -2.4375 C 1.828125 -2.921875 1.421875 -3.078125 1.125 -3.078125 C 0.828125 -3.078125 0.671875 -2.859375 0.578125 -2.703125 C 0.421875 -2.4375 0.328125 -2.046875 0.328125 -2 C 0.328125 -1.921875 0.421875 -1.921875 0.453125 -1.921875 C 0.546875 -1.921875 0.546875 -1.9375 0.59375 -2.125 C 0.703125 -2.53125 0.84375 -2.875 1.109375 -2.875 C 1.296875 -2.875 1.34375 -2.71875 1.34375 -2.53125 C 1.34375 -2.40625 1.28125 -2.140625 1.21875 -1.953125 C 1.171875 -1.765625 1.109375 -1.484375 1.078125 -1.328125 Z M 0.84375 -0.4375 "
           id="path295" />
      </symbol>
    </g>
    <g
       id="g879">
      <symbol
         overflow="visible"
         id="symbol4502">
        <path
           style="stroke:none;"
           d=""
           id="path7821" />
      </symbol>
      <symbol
         overflow="visible"
         id="symbol6723">
        <path
           style="stroke:none;"
           d="M 2.375 -6.8125 C 2.375 -6.8125 2.375 -6.921875 2.25 -6.921875 C 2.03125 -6.921875 1.296875 -6.84375 1.03125 -6.8125 C 0.953125 -6.8125 0.84375 -6.796875 0.84375 -6.625 C 0.84375 -6.5 0.9375 -6.5 1.09375 -6.5 C 1.5625 -6.5 1.578125 -6.4375 1.578125 -6.328125 C 1.578125 -6.265625 1.5 -5.921875 1.453125 -5.71875 L 0.625 -2.46875 C 0.515625 -1.96875 0.46875 -1.796875 0.46875 -1.453125 C 0.46875 -0.515625 1 0.109375 1.734375 0.109375 C 2.90625 0.109375 4.140625 -1.375 4.140625 -2.8125 C 4.140625 -3.71875 3.609375 -4.40625 2.8125 -4.40625 C 2.359375 -4.40625 1.9375 -4.109375 1.640625 -3.8125 Z M 1.453125 -3.046875 C 1.5 -3.265625 1.5 -3.28125 1.59375 -3.390625 C 2.078125 -4.03125 2.53125 -4.1875 2.796875 -4.1875 C 3.15625 -4.1875 3.421875 -3.890625 3.421875 -3.25 C 3.421875 -2.65625 3.09375 -1.515625 2.90625 -1.140625 C 2.578125 -0.46875 2.125 -0.109375 1.734375 -0.109375 C 1.390625 -0.109375 1.0625 -0.375 1.0625 -1.109375 C 1.0625 -1.3125 1.0625 -1.5 1.21875 -2.125 Z M 1.453125 -3.046875 "
           id="path3691" />
      </symbol>
      <symbol
         overflow="visible"
         id="symbol7221">
        <path
           style="stroke:none;"
           d=""
           id="path5720" />
      </symbol>
      <symbol
         overflow="visible"
         id="symbol8989">
        <path
           style="stroke:none;"
           d="M 3.03125 -0.5625 C 2.984375 -0.421875 2.921875 -0.1875 2.921875 -0.15625 C 2.921875 0 3.046875 0.0625 3.15625 0.0625 C 3.296875 0.0625 3.40625 -0.015625 3.4375 -0.078125 C 3.46875 -0.140625 3.53125 -0.375 3.5625 -0.515625 C 3.59375 -0.640625 3.671875 -0.96875 3.71875 -1.140625 C 3.75 -1.296875 3.796875 -1.453125 3.828125 -1.609375 C 3.90625 -1.90625 3.90625 -1.921875 4.046875 -2.140625 C 4.265625 -2.484375 4.625 -2.875 5.15625 -2.875 C 5.546875 -2.875 5.578125 -2.5625 5.578125 -2.390625 C 5.578125 -1.96875 5.28125 -1.203125 5.15625 -0.90625 C 5.09375 -0.703125 5.0625 -0.640625 5.0625 -0.53125 C 5.0625 -0.15625 5.359375 0.0625 5.71875 0.0625 C 6.421875 0.0625 6.71875 -0.890625 6.71875 -1 C 6.71875 -1.09375 6.640625 -1.09375 6.609375 -1.09375 C 6.515625 -1.09375 6.515625 -1.046875 6.484375 -0.96875 C 6.328125 -0.40625 6.015625 -0.125 5.75 -0.125 C 5.59375 -0.125 5.5625 -0.21875 5.5625 -0.375 C 5.5625 -0.53125 5.609375 -0.625 5.734375 -0.9375 C 5.8125 -1.15625 6.09375 -1.890625 6.09375 -2.28125 C 6.09375 -2.390625 6.09375 -2.6875 5.84375 -2.890625 C 5.71875 -2.96875 5.515625 -3.078125 5.1875 -3.078125 C 4.5625 -3.078125 4.1875 -2.65625 3.953125 -2.375 C 3.90625 -2.96875 3.40625 -3.078125 3.046875 -3.078125 C 2.46875 -3.078125 2.078125 -2.71875 1.875 -2.4375 C 1.828125 -2.921875 1.421875 -3.078125 1.125 -3.078125 C 0.828125 -3.078125 0.671875 -2.859375 0.578125 -2.703125 C 0.421875 -2.4375 0.328125 -2.046875 0.328125 -2 C 0.328125 -1.921875 0.421875 -1.921875 0.453125 -1.921875 C 0.546875 -1.921875 0.546875 -1.9375 0.59375 -2.125 C 0.703125 -2.53125 0.84375 -2.875 1.109375 -2.875 C 1.296875 -2.875 1.34375 -2.71875 1.34375 -2.53125 C 1.34375 -2.40625 1.28125 -2.140625 1.21875 -1.953125 C 1.171875 -1.765625 1.109375 -1.484375 1.078125 -1.328125 L 0.84375 -0.4375 C 0.828125 -0.34375 0.78125 -0.171875 0.78125 -0.15625 C 0.78125 0 0.90625 0.0625 1.015625 0.0625 C 1.140625 0.0625 1.25 -0.015625 1.296875 -0.078125 C 1.328125 -0.140625 1.375 -0.375 1.421875 -0.515625 C 1.453125 -0.640625 1.53125 -0.96875 1.5625 -1.140625 C 1.609375 -1.296875 1.65625 -1.453125 1.6875 -1.609375 C 1.765625 -1.890625 1.78125 -1.953125 1.984375 -2.234375 C 2.171875 -2.515625 2.5 -2.875 3.03125 -2.875 C 3.421875 -2.875 3.4375 -2.515625 3.4375 -2.390625 C 3.4375 -2.21875 3.421875 -2.125 3.3125 -1.734375 Z M 3.03125 -0.5625 "
           id="path210" />
      </symbol>
    </g>
    <g
       id="g4275">
      <symbol
         overflow="visible"
         id="symbol1333">
        <path
           style="stroke:none;"
           d=""
           id="path1759" />
      </symbol>
      <symbol
         overflow="visible"
         id="symbol4992">
        <path
           style="stroke:none;"
           d="M 2.375 -6.8125 C 2.375 -6.8125 2.375 -6.921875 2.25 -6.921875 C 2.03125 -6.921875 1.296875 -6.84375 1.03125 -6.8125 C 0.953125 -6.8125 0.84375 -6.796875 0.84375 -6.625 C 0.84375 -6.5 0.9375 -6.5 1.09375 -6.5 C 1.5625 -6.5 1.578125 -6.4375 1.578125 -6.328125 C 1.578125 -6.265625 1.5 -5.921875 1.453125 -5.71875 L 0.625 -2.46875 C 0.515625 -1.96875 0.46875 -1.796875 0.46875 -1.453125 C 0.46875 -0.515625 1 0.109375 1.734375 0.109375 C 2.90625 0.109375 4.140625 -1.375 4.140625 -2.8125 C 4.140625 -3.71875 3.609375 -4.40625 2.8125 -4.40625 C 2.359375 -4.40625 1.9375 -4.109375 1.640625 -3.8125 Z M 1.453125 -3.046875 C 1.5 -3.265625 1.5 -3.28125 1.59375 -3.390625 C 2.078125 -4.03125 2.53125 -4.1875 2.796875 -4.1875 C 3.15625 -4.1875 3.421875 -3.890625 3.421875 -3.25 C 3.421875 -2.65625 3.09375 -1.515625 2.90625 -1.140625 C 2.578125 -0.46875 2.125 -0.109375 1.734375 -0.109375 C 1.390625 -0.109375 1.0625 -0.375 1.0625 -1.109375 C 1.0625 -1.3125 1.0625 -1.5 1.21875 -2.125 Z M 1.453125 -3.046875 "
           id="path3140" />
      </symbol>
      <symbol
         overflow="visible"
         id="symbol9962">
        <path
           style="stroke:none;"
           d=""
           id="path7958" />
      </symbol>
      <symbol
         overflow="visible"
         id="symbol341">
        <path
           style="stroke:none;"
           d="M 0.84375 -0.4375 C 0.828125 -0.34375 0.78125 -0.171875 0.78125 -0.15625 C 0.78125 0 0.90625 0.0625 1.015625 0.0625 C 1.140625 0.0625 1.25 -0.015625 1.296875 -0.078125 C 1.328125 -0.140625 1.375 -0.375 1.421875 -0.515625 C 1.453125 -0.640625 1.53125 -0.96875 1.5625 -1.140625 C 1.609375 -1.296875 1.65625 -1.453125 1.6875 -1.609375 C 1.765625 -1.890625 1.78125 -1.953125 1.984375 -2.234375 C 2.171875 -2.515625 2.5 -2.875 3.03125 -2.875 C 3.421875 -2.875 3.4375 -2.515625 3.4375 -2.390625 C 3.4375 -1.96875 3.140625 -1.203125 3.03125 -0.90625 C 2.953125 -0.703125 2.921875 -0.640625 2.921875 -0.53125 C 2.921875 -0.15625 3.21875 0.0625 3.578125 0.0625 C 4.28125 0.0625 4.578125 -0.890625 4.578125 -1 C 4.578125 -1.09375 4.5 -1.09375 4.46875 -1.09375 C 4.375 -1.09375 4.375 -1.046875 4.34375 -0.96875 C 4.1875 -0.40625 3.875 -0.125 3.609375 -0.125 C 3.453125 -0.125 3.421875 -0.21875 3.421875 -0.375 C 3.421875 -0.53125 3.46875 -0.625 3.59375 -0.9375 C 3.671875 -1.15625 3.953125 -1.890625 3.953125 -2.28125 C 3.953125 -2.953125 3.421875 -3.078125 3.046875 -3.078125 C 2.46875 -3.078125 2.078125 -2.71875 1.875 -2.4375 C 1.828125 -2.921875 1.421875 -3.078125 1.125 -3.078125 C 0.828125 -3.078125 0.671875 -2.859375 0.578125 -2.703125 C 0.421875 -2.4375 0.328125 -2.046875 0.328125 -2 C 0.328125 -1.921875 0.421875 -1.921875 0.453125 -1.921875 C 0.546875 -1.921875 0.546875 -1.9375 0.59375 -2.125 C 0.703125 -2.53125 0.84375 -2.875 1.109375 -2.875 C 1.296875 -2.875 1.34375 -2.71875 1.34375 -2.53125 C 1.34375 -2.40625 1.28125 -2.140625 1.21875 -1.953125 C 1.171875 -1.765625 1.109375 -1.484375 1.078125 -1.328125 Z M 0.84375 -0.4375 "
           id="path871" />
      </symbol>
    </g>
    <g
       id="g6388">
      <symbol
         overflow="visible"
         id="symbol11">
        <path
           style="stroke:none;"
           d=""
           id="path2067" />
      </symbol>
      <symbol
         overflow="visible"
         id="symbol142">
        <path
           style="stroke:none;"
           d="M 3.71875 -3.765625 C 3.53125 -4.140625 3.25 -4.40625 2.796875 -4.40625 C 1.640625 -4.40625 0.40625 -2.9375 0.40625 -1.484375 C 0.40625 -0.546875 0.953125 0.109375 1.71875 0.109375 C 1.921875 0.109375 2.421875 0.0625 3.015625 -0.640625 C 3.09375 -0.21875 3.453125 0.109375 3.921875 0.109375 C 4.28125 0.109375 4.5 -0.125 4.671875 -0.4375 C 4.828125 -0.796875 4.96875 -1.40625 4.96875 -1.421875 C 4.96875 -1.53125 4.875 -1.53125 4.84375 -1.53125 C 4.75 -1.53125 4.734375 -1.484375 4.703125 -1.34375 C 4.53125 -0.703125 4.359375 -0.109375 3.953125 -0.109375 C 3.671875 -0.109375 3.65625 -0.375 3.65625 -0.5625 C 3.65625 -0.78125 3.671875 -0.875 3.78125 -1.3125 C 3.890625 -1.71875 3.90625 -1.828125 4 -2.203125 L 4.359375 -3.59375 C 4.421875 -3.875 4.421875 -3.890625 4.421875 -3.9375 C 4.421875 -4.109375 4.3125 -4.203125 4.140625 -4.203125 C 3.890625 -4.203125 3.75 -3.984375 3.71875 -3.765625 Z M 3.078125 -1.1875 C 3.015625 -1 3.015625 -0.984375 2.875 -0.8125 C 2.4375 -0.265625 2.03125 -0.109375 1.75 -0.109375 C 1.25 -0.109375 1.109375 -0.65625 1.109375 -1.046875 C 1.109375 -1.546875 1.421875 -2.765625 1.65625 -3.234375 C 1.96875 -3.8125 2.40625 -4.1875 2.8125 -4.1875 C 3.453125 -4.1875 3.59375 -3.375 3.59375 -3.3125 C 3.59375 -3.25 3.578125 -3.1875 3.5625 -3.140625 Z M 3.078125 -1.1875 "
           id="path6396" />
      </symbol>
      <symbol
         overflow="visible"
         id="symbol9669">
        <path
           style="stroke:none;"
           d=""
           id="path7433" />
      </symbol>
      <symbol
         overflow="visible"
         id="symbol9103">
        <path
           style="stroke:none;"
           d="M 3.03125 -0.5625 C 2.984375 -0.421875 2.921875 -0.1875 2.921875 -0.15625 C 2.921875 0 3.046875 0.0625 3.15625 0.0625 C 3.296875 0.0625 3.40625 -0.015625 3.4375 -0.078125 C 3.46875 -0.140625 3.53125 -0.375 3.5625 -0.515625 C 3.59375 -0.640625 3.671875 -0.96875 3.71875 -1.140625 C 3.75 -1.296875 3.796875 -1.453125 3.828125 -1.609375 C 3.90625 -1.90625 3.90625 -1.921875 4.046875 -2.140625 C 4.265625 -2.484375 4.625 -2.875 5.15625 -2.875 C 5.546875 -2.875 5.578125 -2.5625 5.578125 -2.390625 C 5.578125 -1.96875 5.28125 -1.203125 5.15625 -0.90625 C 5.09375 -0.703125 5.0625 -0.640625 5.0625 -0.53125 C 5.0625 -0.15625 5.359375 0.0625 5.71875 0.0625 C 6.421875 0.0625 6.71875 -0.890625 6.71875 -1 C 6.71875 -1.09375 6.640625 -1.09375 6.609375 -1.09375 C 6.515625 -1.09375 6.515625 -1.046875 6.484375 -0.96875 C 6.328125 -0.40625 6.015625 -0.125 5.75 -0.125 C 5.59375 -0.125 5.5625 -0.21875 5.5625 -0.375 C 5.5625 -0.53125 5.609375 -0.625 5.734375 -0.9375 C 5.8125 -1.15625 6.09375 -1.890625 6.09375 -2.28125 C 6.09375 -2.390625 6.09375 -2.6875 5.84375 -2.890625 C 5.71875 -2.96875 5.515625 -3.078125 5.1875 -3.078125 C 4.5625 -3.078125 4.1875 -2.65625 3.953125 -2.375 C 3.90625 -2.96875 3.40625 -3.078125 3.046875 -3.078125 C 2.46875 -3.078125 2.078125 -2.71875 1.875 -2.4375 C 1.828125 -2.921875 1.421875 -3.078125 1.125 -3.078125 C 0.828125 -3.078125 0.671875 -2.859375 0.578125 -2.703125 C 0.421875 -2.4375 0.328125 -2.046875 0.328125 -2 C 0.328125 -1.921875 0.421875 -1.921875 0.453125 -1.921875 C 0.546875 -1.921875 0.546875 -1.9375 0.59375 -2.125 C 0.703125 -2.53125 0.84375 -2.875 1.109375 -2.875 C 1.296875 -2.875 1.34375 -2.71875 1.34375 -2.53125 C 1.34375 -2.40625 1.28125 -2.140625 1.21875 -1.953125 C 1.171875 -1.765625 1.109375 -1.484375 1.078125 -1.328125 L 0.84375 -0.4375 C 0.828125 -0.34375 0.78125 -0.171875 0.78125 -0.15625 C 0.78125 0 0.90625 0.0625 1.015625 0.0625 C 1.140625 0.0625 1.25 -0.015625 1.296875 -0.078125 C 1.328125 -0.140625 1.375 -0.375 1.421875 -0.515625 C 1.453125 -0.640625 1.53125 -0.96875 1.5625 -1.140625 C 1.609375 -1.296875 1.65625 -1.453125 1.6875 -1.609375 C 1.765625 -1.890625 1.78125 -1.953125 1.984375 -2.234375 C 2.171875 -2.515625 2.5 -2.875 3.03125 -2.875 C 3.421875 -2.875 3.4375 -2.515625 3.4375 -2.390625 C 3.4375 -2.21875 3.421875 -2.125 3.3125 -1.734375 Z M 3.03125 -0.5625 "
           id="path9462" />
      </symbol>
    </g>
  </defs>
  <sodipodi:namedview
     id="base"
     pagecolor="#ffffff"
     bordercolor="#666666"
     borderopacity="1.0"
     inkscape:pageopacity="0.0"
     inkscape:pageshadow="2"
     inkscape:zoom="7.9195959"
     inkscape:cx="399.19766"
     inkscape:cy="514.43707"
     inkscape:document-units="mm"
     inkscape:current-layer="layer1"
     inkscape:document-rotation="0"
     showgrid="true"
     inkscape:window-width="1267"
     inkscape:window-height="1040"
     inkscape:window-x="130"
     inkscape:window-y="0"
     inkscape:window-maximized="0">
    <inkscape:grid
       type="xygrid"
       id="grid833" />
  </sodipodi:namedview>
  <metadata
     id="metadata5">
    <rdf:RDF>
      <cc:Work
         rdf:about="">
        <dc:format>image/svg+xml</dc:format>
        <dc:type
           rdf:resource="http://purl.org/dc/dcmitype/StillImage" />
        <dc:title></dc:title>
      </cc:Work>
    </rdf:RDF>
  </metadata>
  <g
     inkscape:label="Layer 1"
     inkscape:groupmode="layer"
     id="layer1">
    <path
       style="opacity:0.998;fill:#000000;stroke:#2b0000;stroke-width:0.1;stroke-linecap:round;stroke-linejoin:bevel;stroke-miterlimit:4;stroke-dasharray:none"
       d="m 108.21459,130.43958 h 0.26458"
       id="path1201-5" />
    <path
       style="opacity:0.998;fill:#000000;stroke:#2b0000;stroke-width:0.0901388;stroke-linecap:round;stroke-linejoin:bevel;stroke-miterlimit:4;stroke-dasharray:none;marker-end:url(#Arrow1Mend)"
       d="M 96.572915,129.64583 H 113.77083"
       id="path1173" />
    <path
       style="opacity:0.998;fill:#000000;stroke:#2b0000;stroke-width:0.1;stroke-linecap:round;stroke-linejoin:bevel;stroke-miterlimit:4;stroke-dasharray:none"
       d="m 101.86458,128.85208 v 1.5875"
       id="path1197" />
    <path
       style="opacity:0.998;fill:#000000;stroke:#2b0000;stroke-width:0.1;stroke-linecap:round;stroke-linejoin:bevel;stroke-miterlimit:4;stroke-dasharray:none"
       d="m 101.6,128.85208 h 0.26458"
       id="path1199" />
    <path
       style="opacity:0.998;fill:#000000;stroke:#2b0000;stroke-width:0.1;stroke-linecap:round;stroke-linejoin:bevel;stroke-miterlimit:4;stroke-dasharray:none"
       d="m 101.6,130.43958 h 0.26458"
       id="path1201" />
    <path
       style="opacity:0.998;fill:#000000;stroke:#2b0000;stroke-width:0.1;stroke-linecap:round;stroke-linejoin:bevel;stroke-miterlimit:4;stroke-dasharray:none"
       d="m 108.47917,128.85208 v 1.5875"
       id="path1197-9" />
    <path
       style="opacity:0.998;fill:#000000;stroke:#2b0000;stroke-width:0.1;stroke-linecap:round;stroke-linejoin:bevel;stroke-miterlimit:4;stroke-dasharray:none"
       d="m 108.21459,128.85208 h 0.26458"
       id="path1199-5" />
    <path
       style="opacity:0.998;fill:#000000;stroke:#2b0000;stroke-width:0.1;stroke-linecap:round;stroke-linejoin:bevel;stroke-miterlimit:4;stroke-dasharray:none"
       d="m 105.83333,130.43958 v -1.10832 -0.47918"
       id="path1197-1"
       sodipodi:nodetypes="ccc" />
    <path
       style="opacity:0.998;fill:#000000;stroke:#2b0000;stroke-width:0.1;stroke-linecap:round;stroke-linejoin:bevel;stroke-miterlimit:4;stroke-dasharray:none"
       d="m 106.09791,130.43958 h -0.26458"
       id="path1199-2" />
    <path
       style="opacity:0.998;fill:#000000;stroke:#2b0000;stroke-width:0.1;stroke-linecap:round;stroke-linejoin:bevel;stroke-miterlimit:4;stroke-dasharray:none"
       d="m 106.09791,128.85208 h -0.26458"
       id="path1201-6" />
    <path
       style="opacity:0.998;fill:#000000;stroke:#2b0000;stroke-width:0.1;stroke-linecap:round;stroke-linejoin:bevel;stroke-miterlimit:4;stroke-dasharray:none"
       d="m 99.21875,130.43958 v -1.10832 -0.47918"
       id="path1197-1-3"
       sodipodi:nodetypes="ccc" />
    <path
       style="opacity:0.998;fill:#000000;stroke:#2b0000;stroke-width:0.1;stroke-linecap:round;stroke-linejoin:bevel;stroke-miterlimit:4;stroke-dasharray:none"
       d="M 99.48333,130.43958 H 99.21875"
       id="path1199-2-1" />
    <path
       style="opacity:0.998;fill:#000000;stroke:#2b0000;stroke-width:0.1;stroke-linecap:round;stroke-linejoin:bevel;stroke-miterlimit:4;stroke-dasharray:none"
       d="M 99.48333,128.85208 H 99.21875"
       id="path1201-6-9" />
    <g
       inkscape:label=""
       transform="matrix(0.13713545,0,0,0.13713545,92.944656,120.37606)"
       id="g1307">
      <g
         id="g1236">
        <g
           style="fill:#000000;fill-opacity:1"
           id="g3181">
          <use
             xlink:href="#symbol5535"
             x="91.925003"
             y="81.962997"
             id="use1296"
             width="100%"
             height="100%" />
        </g>
        <g
           style="fill:#000000;fill-opacity:1"
           id="g2582">
          <use
             xlink:href="#symbol4369"
             x="97.191002"
             y="83.457001"
             id="use270"
             width="100%"
             height="100%" />
        </g>
      </g>
    </g>
    <g
       inkscape:label=""
       transform="matrix(0.13713545,0,0,0.13713545,88.9201,120.54855)"
       id="g1375">
      <g
         id="g1844">
        <g
           style="fill:#000000;fill-opacity:1"
           id="g7750">
          <use
             xlink:href="#symbol6723"
             x="91.925003"
             y="81.962997"
             id="use2763"
             width="100%"
             height="100%" />
        </g>
        <g
           style="fill:#000000;fill-opacity:1"
           id="g4956">
          <use
             xlink:href="#symbol8989"
             x="96.200996"
             y="83.457001"
             id="use4619"
             width="100%"
             height="100%" />
        </g>
      </g>
    </g>
    <g
       inkscape:label=""
       transform="matrix(0.13713545,0,0,0.13713545,95.532684,120.54855)"
       id="g1458">
      <g
         id="g7482">
        <g
           style="fill:#000000;fill-opacity:1"
           id="g5617">
          <use
             xlink:href="#symbol4992"
             x="91.925003"
             y="81.962997"
             id="use4874"
             width="100%"
             height="100%" />
        </g>
        <g
           style="fill:#000000;fill-opacity:1"
           id="g8278">
          <use
             xlink:href="#symbol341"
             x="96.200996"
             y="83.457001"
             id="use5065"
             width="100%"
             height="100%" />
        </g>
      </g>
    </g>
    <g
       inkscape:label=""
       transform="matrix(0.13713545,0,0,0.13713545,86.205231,120.37606)"
       id="g1556">
      <g
         id="g1559">
        <g
           style="fill:#000000;fill-opacity:1"
           id="g9586">
          <use
             xlink:href="#symbol142"
             x="91.925003"
             y="81.962997"
             id="use780"
             width="100%"
             height="100%" />
        </g>
        <g
           style="fill:#000000;fill-opacity:1"
           id="g1734">
          <use
             xlink:href="#symbol9103"
             x="97.191002"
             y="83.457001"
             id="use5382"
             width="100%"
             height="100%" />
        </g>
      </g>
    </g>
    <text
       xml:space="preserve"
       style="font-size:1.41111px;line-height:1.25;font-family:sans-serif;stroke-width:0.264583"
       x="103.72139"
       y="131.74832"
       id="text1578"><tspan
         sodipodi:role="line"
         id="tspan1576"
         x="103.72139"
         y="131.74832"
         style="stroke-width:0.264583">&lt;</tspan></text>
    <path
       style="opacity:0.998;fill:none;stroke:#2b0000;stroke-width:0.1;stroke-linecap:round;stroke-linejoin:bevel;stroke-miterlimit:4;stroke-dasharray:none"
       d="m 99.218749,128.5875 c 0.915321,-0.74763 1.793461,-0.6624 2.645831,0"
       id="path1592"
       sodipodi:nodetypes="cc" />
    <path
       style="opacity:0.998;fill:#000000;stroke:#2b0000;stroke-width:0.1;stroke-linecap:round;stroke-linejoin:bevel;stroke-miterlimit:4;stroke-dasharray:none"
       d="m 105.83333,130.43958 v -1.10832 -0.47918"
       id="path1197-1-8"
       sodipodi:nodetypes="ccc" />
    <path
       style="opacity:0.998;fill:#000000;stroke:#2b0000;stroke-width:0.1;stroke-linecap:round;stroke-linejoin:bevel;stroke-miterlimit:4;stroke-dasharray:none"
       d="m 106.09791,130.43958 h -0.26458"
       id="path1199-2-16" />
    <path
       style="opacity:0.998;fill:#000000;stroke:#2b0000;stroke-width:0.1;stroke-linecap:round;stroke-linejoin:bevel;stroke-miterlimit:4;stroke-dasharray:none"
       d="m 106.09791,128.85208 h -0.26458"
       id="path1201-6-3" />
    <path
       style="opacity:0.998;fill:none;stroke:#2b0000;stroke-width:0.1;stroke-linecap:round;stroke-linejoin:bevel;stroke-miterlimit:4;stroke-dasharray:none"
       d="m 105.83334,128.5875 c 0.91532,-0.74763 1.79346,-0.6624 2.64583,0"
       id="path1592-8"
       sodipodi:nodetypes="cc" />
  </g>
</svg>
