<?xml version="1.0" encoding="UTF-8" standalone="no"?>
<svg
   xmlns:dc="http://purl.org/dc/elements/1.1/"
   xmlns:cc="http://creativecommons.org/ns#"
   xmlns:rdf="http://www.w3.org/1999/02/22-rdf-syntax-ns#"
   xmlns:svg="http://www.w3.org/2000/svg"
   xmlns="http://www.w3.org/2000/svg"
   xmlns:xlink="http://www.w3.org/1999/xlink"
   xmlns:sodipodi="http://sodipodi.sourceforge.net/DTD/sodipodi-0.dtd"
   xmlns:inkscape="http://www.inkscape.org/namespaces/inkscape"
   width="210mm"
   height="297mm"
   viewBox="0 0 210 297"
   version="1.1"
   id="svg8"
   inkscape:version="1.0.2 (e86c870, 2021-01-15)"
   sodipodi:docname="7_5.svg">
  <defs
     id="defs2">
    <inkscape:path-effect
       effect="spiro"
       id="path-effect1267"
       is_visible="true"
       lpeversion="1" />
    <marker
       style="overflow:visible;"
       id="marker1197"
       refX="0.0"
       refY="0.0"
       orient="auto"
       inkscape:stockid="Arrow1Mend"
       inkscape:isstock="true">
      <path
         transform="scale(0.4) rotate(180) translate(10,0)"
         style="fill-rule:evenodd;stroke:#000000;stroke-width:1pt;stroke-opacity:1;fill:#000000;fill-opacity:1"
         d="M 0.0,0.0 L 5.0,-5.0 L -12.5,0.0 L 5.0,5.0 L 0.0,0.0 z "
         id="path1195" />
    </marker>
    <marker
       style="overflow:visible;"
       id="Arrow1Mend"
       refX="0.0"
       refY="0.0"
       orient="auto"
       inkscape:stockid="Arrow1Mend"
       inkscape:isstock="true"
       inkscape:collect="always">
      <path
         transform="scale(0.4) rotate(180) translate(10,0)"
         style="fill-rule:evenodd;stroke:#000000;stroke-width:1pt;stroke-opacity:1;fill:#000000;fill-opacity:1"
         d="M 0.0,0.0 L 5.0,-5.0 L -12.5,0.0 L 5.0,5.0 L 0.0,0.0 z "
         id="path848" />
    </marker>
    <marker
       style="overflow:visible"
       id="Arrow1Lstart"
       refX="0.0"
       refY="0.0"
       orient="auto"
       inkscape:stockid="Arrow1Lstart"
       inkscape:isstock="true">
      <path
         transform="scale(0.8) translate(12.5,0)"
         style="fill-rule:evenodd;stroke:#000000;stroke-width:1pt;stroke-opacity:1;fill:#000000;fill-opacity:1"
         d="M 0.0,0.0 L 5.0,-5.0 L -12.5,0.0 L 5.0,5.0 L 0.0,0.0 z "
         id="path839" />
    </marker>
    <g
       id="g1281">
      <symbol
         overflow="visible"
         id="symbol75">
        <path
           style="stroke:none;"
           d=""
           id="path3080" />
      </symbol>
      <symbol
         overflow="visible"
         id="symbol825">
        <path
           style="stroke:none;"
           d="M 2.9375 -6.375 C 2.9375 -6.625 2.9375 -6.640625 2.703125 -6.640625 C 2.078125 -6 1.203125 -6 0.890625 -6 L 0.890625 -5.6875 C 1.09375 -5.6875 1.671875 -5.6875 2.1875 -5.953125 L 2.1875 -0.78125 C 2.1875 -0.421875 2.15625 -0.3125 1.265625 -0.3125 L 0.953125 -0.3125 L 0.953125 0 C 1.296875 -0.03125 2.15625 -0.03125 2.5625 -0.03125 C 2.953125 -0.03125 3.828125 -0.03125 4.171875 0 L 4.171875 -0.3125 L 3.859375 -0.3125 C 2.953125 -0.3125 2.9375 -0.421875 2.9375 -0.78125 Z M 2.9375 -6.375 "
           id="path1599" />
      </symbol>
    </g>
    <g
       id="g3489">
      <symbol
         overflow="visible"
         id="symbol6474">
        <path
           style="stroke:none;"
           d=""
           id="path7103" />
      </symbol>
      <symbol
         overflow="visible"
         id="symbol7200">
        <path
           style="stroke:none;"
           d="M 2.328125 -4.4375 C 2.328125 -4.625 2.328125 -4.625 2.125 -4.625 C 1.671875 -4.1875 1.046875 -4.1875 0.765625 -4.1875 L 0.765625 -3.9375 C 0.921875 -3.9375 1.390625 -3.9375 1.765625 -4.125 L 1.765625 -0.578125 C 1.765625 -0.34375 1.765625 -0.25 1.078125 -0.25 L 0.8125 -0.25 L 0.8125 0 C 0.9375 0 1.796875 -0.03125 2.046875 -0.03125 C 2.265625 -0.03125 3.140625 0 3.296875 0 L 3.296875 -0.25 L 3.03125 -0.25 C 2.328125 -0.25 2.328125 -0.34375 2.328125 -0.578125 Z M 2.328125 -4.4375 "
           id="path615" />
      </symbol>
      <symbol
         overflow="visible"
         id="symbol9984">
        <path
           style="stroke:none;"
           d="M 3.515625 -1.265625 L 3.28125 -1.265625 C 3.265625 -1.109375 3.1875 -0.703125 3.09375 -0.640625 C 3.046875 -0.59375 2.515625 -0.59375 2.40625 -0.59375 L 1.125 -0.59375 C 1.859375 -1.234375 2.109375 -1.4375 2.515625 -1.765625 C 3.03125 -2.171875 3.515625 -2.609375 3.515625 -3.265625 C 3.515625 -4.109375 2.78125 -4.625 1.890625 -4.625 C 1.03125 -4.625 0.4375 -4.015625 0.4375 -3.375 C 0.4375 -3.03125 0.734375 -2.984375 0.8125 -2.984375 C 0.96875 -2.984375 1.171875 -3.109375 1.171875 -3.359375 C 1.171875 -3.484375 1.125 -3.734375 0.765625 -3.734375 C 0.984375 -4.21875 1.453125 -4.375 1.78125 -4.375 C 2.484375 -4.375 2.84375 -3.828125 2.84375 -3.265625 C 2.84375 -2.65625 2.40625 -2.1875 2.1875 -1.9375 L 0.515625 -0.265625 C 0.4375 -0.203125 0.4375 -0.1875 0.4375 0 L 3.3125 0 Z M 3.515625 -1.265625 "
           id="path371" />
      </symbol>
    </g>
    <g
       id="g33">
      <symbol
         overflow="visible"
         id="symbol8168">
        <path
           style="stroke:none;"
           d=""
           id="path5340" />
      </symbol>
      <symbol
         overflow="visible"
         id="symbol1976">
        <path
           style="stroke:none;"
           d="M 2.328125 -4.4375 C 2.328125 -4.625 2.328125 -4.625 2.125 -4.625 C 1.671875 -4.1875 1.046875 -4.1875 0.765625 -4.1875 L 0.765625 -3.9375 C 0.921875 -3.9375 1.390625 -3.9375 1.765625 -4.125 L 1.765625 -0.578125 C 1.765625 -0.34375 1.765625 -0.25 1.078125 -0.25 L 0.8125 -0.25 L 0.8125 0 C 0.9375 0 1.796875 -0.03125 2.046875 -0.03125 C 2.265625 -0.03125 3.140625 0 3.296875 0 L 3.296875 -0.25 L 3.03125 -0.25 C 2.328125 -0.25 2.328125 -0.34375 2.328125 -0.578125 Z M 2.328125 -4.4375 "
           id="path7852" />
      </symbol>
      <symbol
         overflow="visible"
         id="symbol249">
        <path
           style="stroke:none;"
           d=""
           id="path5028" />
      </symbol>
      <symbol
         overflow="visible"
         id="symbol3148">
        <path
           style="stroke:none;"
           d="M 0.84375 -0.4375 C 0.828125 -0.34375 0.78125 -0.171875 0.78125 -0.15625 C 0.78125 0 0.90625 0.0625 1.015625 0.0625 C 1.140625 0.0625 1.25 -0.015625 1.296875 -0.078125 C 1.328125 -0.140625 1.375 -0.375 1.421875 -0.515625 C 1.453125 -0.640625 1.53125 -0.96875 1.5625 -1.140625 C 1.609375 -1.296875 1.65625 -1.453125 1.6875 -1.609375 C 1.765625 -1.890625 1.78125 -1.953125 1.984375 -2.234375 C 2.171875 -2.515625 2.5 -2.875 3.03125 -2.875 C 3.421875 -2.875 3.4375 -2.515625 3.4375 -2.390625 C 3.4375 -1.96875 3.140625 -1.203125 3.03125 -0.90625 C 2.953125 -0.703125 2.921875 -0.640625 2.921875 -0.53125 C 2.921875 -0.15625 3.21875 0.0625 3.578125 0.0625 C 4.28125 0.0625 4.578125 -0.890625 4.578125 -1 C 4.578125 -1.09375 4.5 -1.09375 4.46875 -1.09375 C 4.375 -1.09375 4.375 -1.046875 4.34375 -0.96875 C 4.1875 -0.40625 3.875 -0.125 3.609375 -0.125 C 3.453125 -0.125 3.421875 -0.21875 3.421875 -0.375 C 3.421875 -0.53125 3.46875 -0.625 3.59375 -0.9375 C 3.671875 -1.15625 3.953125 -1.890625 3.953125 -2.28125 C 3.953125 -2.953125 3.421875 -3.078125 3.046875 -3.078125 C 2.46875 -3.078125 2.078125 -2.71875 1.875 -2.4375 C 1.828125 -2.921875 1.421875 -3.078125 1.125 -3.078125 C 0.828125 -3.078125 0.671875 -2.859375 0.578125 -2.703125 C 0.421875 -2.4375 0.328125 -2.046875 0.328125 -2 C 0.328125 -1.921875 0.421875 -1.921875 0.453125 -1.921875 C 0.546875 -1.921875 0.546875 -1.9375 0.59375 -2.125 C 0.703125 -2.53125 0.84375 -2.875 1.109375 -2.875 C 1.296875 -2.875 1.34375 -2.71875 1.34375 -2.53125 C 1.34375 -2.40625 1.28125 -2.140625 1.21875 -1.953125 C 1.171875 -1.765625 1.109375 -1.484375 1.078125 -1.328125 Z M 0.84375 -0.4375 "
           id="path4926" />
      </symbol>
    </g>
  </defs>
  <sodipodi:namedview
     id="base"
     pagecolor="#ffffff"
     bordercolor="#666666"
     borderopacity="1.0"
     inkscape:pageopacity="0.0"
     inkscape:pageshadow="2"
     inkscape:zoom="5.6568543"
     inkscape:cx="306.98066"
     inkscape:cy="339.90657"
     inkscape:document-units="mm"
     inkscape:current-layer="layer1"
     inkscape:document-rotation="0"
     showgrid="true"
     inkscape:window-width="1267"
     inkscape:window-height="1040"
     inkscape:window-x="109"
     inkscape:window-y="1"
     inkscape:window-maximized="0">
    <inkscape:grid
       type="xygrid"
       id="grid833" />
  </sodipodi:namedview>
  <metadata
     id="metadata5">
    <rdf:RDF>
      <cc:Work
         rdf:about="">
        <dc:format>image/svg+xml</dc:format>
        <dc:type
           rdf:resource="http://purl.org/dc/dcmitype/StillImage" />
        <dc:title></dc:title>
      </cc:Work>
    </rdf:RDF>
  </metadata>
  <g
     inkscape:label="Layer 1"
     inkscape:groupmode="layer"
     id="layer1">
    <path
       style="fill:none;stroke:#000000;stroke-width:0.0654654;stroke-linecap:butt;stroke-linejoin:miter;stroke-miterlimit:4;stroke-dasharray:none;stroke-opacity:1;marker-end:url(#Arrow1Mend)"
       d="M 68.791666,85.989582 V 78.052083"
       id="path835" />
    <path
       style="fill:none;stroke:#000000;stroke-width:0.0856349;stroke-linecap:butt;stroke-linejoin:miter;stroke-miterlimit:4;stroke-dasharray:none;stroke-opacity:1;marker-end:url(#marker1197)"
       d="M 67.468749,84.666666 H 82.020833"
       id="path837" />
    <path
       style="opacity:0.998;fill:none;stroke:#2b0000;stroke-width:0.1;stroke-linecap:round;stroke-linejoin:bevel;stroke-miterlimit:4;stroke-dasharray:none"
       d="M 74.083333,84.402083 V 84.93125"
       id="path1189" />
    <path
       style="opacity:0.998;fill:none;stroke:#2b0000;stroke-width:0.1;stroke-linecap:round;stroke-linejoin:bevel;stroke-miterlimit:4;stroke-dasharray:none"
       d="m 71.437499,84.402082 v 0.529167"
       id="path1191" />
    <path
       style="opacity:0.998;fill:none;stroke:#2b0000;stroke-width:0.1;stroke-linecap:round;stroke-linejoin:bevel;stroke-miterlimit:4;stroke-dasharray:none"
       d="m 79.374999,84.402082 v 0.529167"
       id="path1193" />
    <text
       xml:space="preserve"
       style="font-size:0.866592px;line-height:1.25;font-family:sans-serif;stroke-width:0.162488"
       x="71.143471"
       y="85.996094"
       id="text1237"><tspan
         sodipodi:role="line"
         id="tspan1235"
         x="71.143471"
         y="85.996094"
         style="stroke-width:0.162488">1</tspan></text>
    <text
       xml:space="preserve"
       style="font-size:0.866592px;line-height:1.25;font-family:sans-serif;stroke-width:0.162488"
       x="73.795143"
       y="85.976517"
       id="text1241"><tspan
         sodipodi:role="line"
         id="tspan1239"
         x="73.795143"
         y="85.976517"
         style="stroke-width:0.162488">2</tspan></text>
    <text
       xml:space="preserve"
       style="font-size:0.866592px;line-height:1.25;font-family:sans-serif;stroke-width:0.162488"
       x="79.101662"
       y="86.000145"
       id="text1245"><tspan
         sodipodi:role="line"
         id="tspan1243"
         x="79.101662"
         y="86.000145"
         style="stroke-width:0.162488">n</tspan></text>
    <text
       xml:space="preserve"
       style="font-size:1.01952px;line-height:1.25;font-family:sans-serif;stroke-width:0.191162"
       x="76.263611"
       y="86.000145"
       id="text1255"><tspan
         sodipodi:role="line"
         id="tspan1253"
         x="76.263611"
         y="86.000145"
         style="font-size:0.866592px;stroke-width:0.191162">...</tspan></text>
    <circle
       id="path1271"
       style="fill:#000000;stroke:none;stroke-width:0.0661455"
       cx="71.4375"
       cy="82.020836"
       r="0.099218749" />
    <circle
       id="path1271-2"
       style="fill:#000000;stroke:none;stroke-width:0.0661455"
       cx="74.090416"
       cy="83.34375"
       r="0.099218749" />
    <circle
       id="path1271-4"
       style="fill:#000000;stroke:none;stroke-width:0.0661455"
       cx="79.366837"
       cy="84.221504"
       r="0.099218749" />
    <text
       xml:space="preserve"
       style="font-size:0.705556px;line-height:1.25;font-family:sans-serif;stroke-width:0.264583"
       x="70.643745"
       y="82.020836"
       id="text1304"><tspan
         sodipodi:role="line"
         id="tspan1302"
         x="70.643745"
         y="82.020836"
         style="stroke-width:0.264583" /></text>
    <g
       inkscape:label=""
       transform="matrix(0.0903125,0,0,0.0903125,62.505867,74.901127)"
       id="g1348">
      <g
         id="g9946">
        <g
           style="fill:#000000;fill-opacity:1"
           id="g7937">
          <use
             xlink:href="#symbol825"
             x="91.925003"
             y="81.962997"
             id="use8403"
             width="100%"
             height="100%" />
        </g>
      </g>
    </g>
    <g
       inkscape:label=""
       transform="matrix(0.0903125,0,0,0.0903125,64.931544,76.177175)"
       id="g1414">
      <g
         id="g5753">
        <g
           style="fill:#000000;fill-opacity:1"
           id="g8466">
          <use
             xlink:href="#symbol7200"
             x="93.121002"
             y="78.040001"
             id="use4017"
             width="100%"
             height="100%" />
        </g>
        <path
           style="fill:none;stroke:#000000;stroke-width:0.398;stroke-linecap:butt;stroke-linejoin:miter;stroke-miterlimit:10;stroke-opacity:1"
           d="M 9.375e-5,-6.5625e-4 H 3.97275"
           transform="matrix(1,0,0,-1,93.121,79.472)"
           id="path2860" />
        <g
           style="fill:#000000;fill-opacity:1"
           id="g8903">
          <use
             xlink:href="#symbol9984"
             x="93.121002"
             y="85.398003"
             id="use3190"
             width="100%"
             height="100%" />
        </g>
      </g>
    </g>
    <g
       inkscape:label=""
       transform="matrix(0.0903125,0,0,0.0903125,70.214281,76.733113)"
       id="g1501">
      <g
         id="g671">
        <g
           style="fill:#000000;fill-opacity:1"
           id="g8045">
          <use
             xlink:href="#symbol1976"
             x="93.598"
             y="78.040001"
             id="use6183"
             width="100%"
             height="100%" />
        </g>
        <path
           style="fill:none;stroke:#000000;stroke-width:0.398;stroke-linecap:butt;stroke-linejoin:miter;stroke-miterlimit:10;stroke-opacity:1"
           d="M 9.375e-5,-6.5625e-4 H 4.925875"
           transform="matrix(1,0,0,-1,93.121,79.472)"
           id="path9760" />
        <g
           style="fill:#000000;fill-opacity:1"
           id="g6764">
          <use
             xlink:href="#symbol3148"
             x="93.121002"
             y="85.398003"
             id="use8384"
             width="100%"
             height="100%" />
        </g>
      </g>
    </g>
    <path
       style="opacity:0.998;fill:none;stroke:#2b0000;stroke-width:0.1;stroke-linecap:round;stroke-linejoin:bevel;stroke-miterlimit:4;stroke-dasharray:none"
       d="m 69.05625,82.020833 -0.529166,-3e-6"
       id="path1191-8"
       inkscape:transform-center-x="-0.10022607"
       inkscape:transform-center-y="-0.016704346" />
    <path
       style="opacity:0.998;fill:none;stroke:#2b0000;stroke-width:0.1;stroke-linecap:round;stroke-linejoin:bevel;stroke-miterlimit:4;stroke-dasharray:none"
       d="m 69.056251,79.375001 -0.529166,-3e-6"
       id="path1191-8-9"
       inkscape:transform-center-x="-0.10022607"
       inkscape:transform-center-y="-0.016704346" />
  </g>
</svg>
