<?xml version="1.0" encoding="UTF-8" standalone="no"?>
<svg
   xmlns:dc="http://purl.org/dc/elements/1.1/"
   xmlns:cc="http://creativecommons.org/ns#"
   xmlns:rdf="http://www.w3.org/1999/02/22-rdf-syntax-ns#"
   xmlns:svg="http://www.w3.org/2000/svg"
   xmlns="http://www.w3.org/2000/svg"
   xmlns:sodipodi="http://sodipodi.sourceforge.net/DTD/sodipodi-0.dtd"
   xmlns:inkscape="http://www.inkscape.org/namespaces/inkscape"
   width="210mm"
   height="297mm"
   viewBox="0 0 210 297"
   version="1.1"
   id="svg8"
   inkscape:version="1.0.2 (e86c870, 2021-01-15)"
   sodipodi:docname="1_3.svg">
  <defs
     id="defs2">
    <inkscape:path-effect
       effect="spiro"
       id="path-effect2148"
       is_visible="true"
       lpeversion="1" />
    <inkscape:path-effect
       effect="spiro"
       id="path-effect2012"
       is_visible="true"
       lpeversion="1" />
    <marker
       style="overflow:visible;"
       id="marker1899"
       refX="0.0"
       refY="0.0"
       orient="auto"
       inkscape:stockid="Arrow1Mend"
       inkscape:isstock="true">
      <path
         transform="scale(0.4) rotate(180) translate(10,0)"
         style="fill-rule:evenodd;stroke:#000000;stroke-width:1pt;stroke-opacity:1;fill:#000000;fill-opacity:1"
         d="M 0.0,0.0 L 5.0,-5.0 L -12.5,0.0 L 5.0,5.0 L 0.0,0.0 z "
         id="path1897" />
    </marker>
    <marker
       style="overflow:visible;"
       id="marker1871"
       refX="0.0"
       refY="0.0"
       orient="auto"
       inkscape:stockid="Arrow1Mend"
       inkscape:isstock="true">
      <path
         transform="scale(0.4) rotate(180) translate(10,0)"
         style="fill-rule:evenodd;stroke:#000000;stroke-width:1pt;stroke-opacity:1;fill:#000000;fill-opacity:1"
         d="M 0.0,0.0 L 5.0,-5.0 L -12.5,0.0 L 5.0,5.0 L 0.0,0.0 z "
         id="path1869" />
    </marker>
    <marker
       style="overflow:visible;"
       id="Arrow1Mend"
       refX="0.0"
       refY="0.0"
       orient="auto"
       inkscape:stockid="Arrow1Mend"
       inkscape:isstock="true">
      <path
         transform="scale(0.4) rotate(180) translate(10,0)"
         style="fill-rule:evenodd;stroke:#000000;stroke-width:1pt;stroke-opacity:1;fill:#000000;fill-opacity:1"
         d="M 0.0,0.0 L 5.0,-5.0 L -12.5,0.0 L 5.0,5.0 L 0.0,0.0 z "
         id="path1008" />
    </marker>
    <inkscape:path-effect
       effect="spiro"
       id="path-effect1847"
       is_visible="true"
       lpeversion="1" />
    <inkscape:path-effect
       effect="spiro"
       id="path-effect1843"
       is_visible="true"
       lpeversion="1" />
    <inkscape:path-effect
       effect="spiro"
       id="path-effect1839"
       is_visible="true"
       lpeversion="1" />
    <inkscape:path-effect
       effect="skeletal"
       id="path-effect1813"
       is_visible="true"
       lpeversion="1"
       pattern="M 0,5 C 0,2.24 2.24,0 5,0 7.76,0 10,2.24 10,5 10,7.76 7.76,10 5,10 2.24,10 0,7.76 0,5 Z"
       copytype="single_stretched"
       prop_scale="1"
       scale_y_rel="false"
       spacing="0"
       normal_offset="0"
       tang_offset="0"
       prop_units="false"
       vertical_pattern="false"
       hide_knot="false"
       fuse_tolerance="0" />
    <inkscape:path-effect
       effect="skeletal"
       id="path-effect1805"
       is_visible="true"
       lpeversion="1"
       pattern="M 0,5 C 0,2.24 2.24,0 5,0 7.76,0 10,2.24 10,5 10,7.76 7.76,10 5,10 2.24,10 0,7.76 0,5 Z"
       copytype="single_stretched"
       prop_scale="1"
       scale_y_rel="false"
       spacing="0"
       normal_offset="0"
       tang_offset="0"
       prop_units="false"
       vertical_pattern="false"
       hide_knot="false"
       fuse_tolerance="0" />
    <inkscape:path-effect
       effect="skeletal"
       id="path-effect1799"
       is_visible="true"
       lpeversion="1"
       pattern="M 0,5 C 0,2.24 2.24,0 5,0 7.76,0 10,2.24 10,5 10,7.76 7.76,10 5,10 2.24,10 0,7.76 0,5 Z"
       copytype="single_stretched"
       prop_scale="1"
       scale_y_rel="false"
       spacing="0"
       normal_offset="0"
       tang_offset="0"
       prop_units="false"
       vertical_pattern="false"
       hide_knot="false"
       fuse_tolerance="0" />
    <inkscape:path-effect
       effect="powerstroke"
       id="path-effect963"
       is_visible="true"
       lpeversion="1"
       offset_points="1.3498604,0.86542138"
       sort_points="true"
       interpolator_type="CentripetalCatmullRom"
       interpolator_beta="0.75"
       start_linecap_type="round"
       linejoin_type="spiro"
       miter_limit="4"
       scale_width="1"
       end_linecap_type="round" />
    <inkscape:path-effect
       effect="simplify"
       id="path-effect961"
       is_visible="true"
       lpeversion="1"
       steps="1"
       threshold="0.0037315876"
       smooth_angles="0"
       helper_size="0"
       simplify_individual_paths="false"
       simplify_just_coalesce="false"
       step="1" />
    <inkscape:path-effect
       effect="powerstroke"
       id="path-effect893"
       is_visible="true"
       lpeversion="1"
       offset_points="0,0.1322915"
       sort_points="true"
       interpolator_type="CubicBezierJohan"
       interpolator_beta="0.2"
       start_linecap_type="zerowidth"
       linejoin_type="extrp_arc"
       miter_limit="4"
       scale_width="1"
       end_linecap_type="zerowidth" />
    <clipPath
       clipPathUnits="userSpaceOnUse"
       id="clipPath1737">
      <path
         id="path1739"
         style="fill:#ff0000;fill-opacity:1;fill-rule:nonzero;stroke:none;stroke-width:0.264583"
         d="m 44.999836,129.99981 v 1.06867 h 0.675928 v -1.06867 z" />
    </clipPath>
    <clipPath
       clipPathUnits="userSpaceOnUse"
       id="clipPath1771">
      <path
         id="path1773"
         style="fill:#ff0000;fill-opacity:1;fill-rule:nonzero;stroke:none;stroke-width:0.264583"
         d="m 39.989289,123.90716 c 0.0086,0.0655 0.0131,0.13513 0.01291,0.20981 -9.8e-5,0.029 1.51e-4,0.0578 -0.0016,0.0868 -0.0032,0.12264 0.01818,0.2452 0.0052,0.36948 -0.03823,0.0381 -0.08384,0.0717 -0.128673,0.10594 v 0.16485 c 0.02313,-0.0231 0.05982,-0.0577 0.07751,-0.0749 0.0073,-0.007 0.01082,-0.0218 0.01394,-0.0367 0.0019,-0.0372 0.0045,-0.0745 0.0021,-0.11163 -0.0026,-0.0396 0.01013,0.0535 -0.0021,0.11163 -0.0038,0.0749 -0.01738,0.14909 -0.03566,0.2222 h 0.638723 v -1.04748 z" />
    </clipPath>
    <clipPath
       clipPathUnits="userSpaceOnUse"
       id="clipPath1781">
      <path
         id="path1783"
         style="fill:#ff0000;fill-opacity:1;fill-rule:nonzero;stroke:none;stroke-width:0.264583"
         d="m 38.772827,124.26321 -3.373437,0.001 v 9.82059 h 1.030428 c -0.51281,-0.39375 -0.691354,-0.35388 -0.531233,-0.83871 -0.256474,-0.19955 -0.289404,-0.65648 0.160197,-1.12189 0.163298,-0.16909 0.297344,-0.31734 0.525547,-0.4067 0.01058,-0.007 0.02135,-0.0152 0.03204,-0.0222 0.01799,-0.0708 0.0097,-0.0315 0.04392,-0.17312 0.04966,-0.0494 0.0052,-0.006 0.04134,-0.0419 0.0016,-0.003 0.0016,-0.006 0.0031,-0.008 0.006,-0.01 0.159602,-0.16103 0.229444,-0.22789 0.05931,-0.0568 -0.02908,0.033 -0.232545,0.23616 -0.03487,0.0602 -0.04653,0.13104 -0.06356,0.19947 0.01228,-0.008 0.02413,-0.0177 0.03669,-0.0248 0.01074,-0.0123 0.02291,-0.0224 0.04393,-0.0207 0.06631,-0.0328 0.136608,-0.0593 0.219107,-0.0703 0.09109,-0.0121 0.359066,-0.0273 0.275437,0.0108 -0.139269,0.063 -0.30248,0.0475 -0.453721,0.0708 -0.01598,-0.007 -0.02923,-0.0105 -0.04082,-0.0114 -0.01442,0.007 -0.02996,0.0128 -0.04393,0.0207 -0.01082,0.0124 -0.0205,0.0265 -0.02635,0.0455 0.09028,-0.0247 0.221586,-0.0509 0.168465,-0.0176 -0.05269,0.033 -0.11512,0.0419 -0.178284,0.0496 -0.0065,0.0229 -0.01405,0.0451 -0.02635,0.0594 -0.07884,0.32747 0.08279,0.29272 0.313676,0.15554 0.09864,-0.14076 0.21326,-0.26923 0.351917,-0.3731 0.03174,-0.0238 0.06153,-0.0544 0.09974,-0.0651 0.137007,-0.0383 0.279363,-0.0534 0.419097,-0.0801 0.127527,0.064 0.293095,0.0805 0.382405,0.19172 0.111935,0.13944 0.139227,0.3313 0.177766,0.50591 0.01214,0.055 0.0044,0.12191 -0.02945,0.16691 -0.08474,0.1128 -0.174467,0.2262 -0.278538,0.32195 0.0066,-0.002 0.01368,-0.003 0.02016,-0.005 0.01884,-0.0225 0.03469,-0.0479 0.05633,-0.0677 0.01519,-0.0139 0.0055,0.0423 -5.3e-4,0.062 -0.01696,0.0553 -0.0351,0.11033 -0.05581,0.16433 -0.0748,0.19486 -0.137549,0.21627 -0.295071,0.28422 -0.01053,0.0256 -0.02185,0.0509 -0.03617,0.0744 -0.0039,0.006 -0.06153,0.0275 -0.104386,0.0455 -0.0027,0.004 -0.0051,0.007 -0.0078,0.0103 0.02455,-0.009 -0.01961,0.007 0.02479,-0.009 0.04064,-0.0239 1.43e-4,-0.001 -0.02946,0.015 -5.29e-4,5.3e-4 -0.0013,0.002 -0.0016,0.002 -0.03849,0.054 -0.08043,0.10627 -0.120404,0.15917 -0.157599,0.17987 -0.304377,0.3675 -0.469742,0.54053 -0.03175,0.0332 -0.05794,0.0751 -0.09818,0.0971 -0.06566,0.0362 -0.134294,0.0667 -0.203605,0.0956 h 8.491988 v -0.98496 c -0.09605,0.16389 -0.252106,0.23086 -0.465088,0.21136 0.01146,-0.002 0.01582,-0.008 -5.29e-4,-0.0243 -0.09946,-0.0971 -0.215162,-0.17459 -0.332279,-0.25063 3.1e-5,0.0231 -7.94e-4,0.0421 -5.3e-4,0.0661 7.94e-4,0.0918 0.218544,0.19094 0.306444,0.20671 -0.08773,-0.0108 -0.181311,-0.0301 -0.287322,-0.0682 -0.06803,-0.0245 -0.115364,-0.0872 -0.173117,-0.13074 -0.143314,-0.21523 -0.193529,-0.29283 -0.211354,-0.4098 -0.0029,-0.003 -0.0059,-0.006 -0.0088,-0.009 -0.02728,-0.0177 -0.04919,-0.0309 -0.0801,-0.0507 -0.01902,-0.0114 -0.01019,-0.006 -0.02326,-0.0134 -0.01963,8e-4 -0.03927,0.002 -0.05891,0.003 -0.0058,-0.015 -0.01087,-0.0309 -0.01654,-0.046 0,0 0,-5.3e-4 0,-5.3e-4 -0.02125,-0.0565 -0.04117,-0.11362 -0.0615,-0.17054 -0.0057,-0.005 -0.01069,-0.0114 -0.01654,-0.0165 -0.07798,-0.0682 -0.10409,-0.0667 -0.180351,-0.11938 -0.04342,-0.03 -0.08518,-0.0627 -0.12764,-0.0941 -0.02061,-0.018 -0.07586,-0.0533 -0.08888,-0.0677 0.01397,0.0494 0.02986,0.0982 0.04806,0.14573 0.01529,0.0399 0.125137,0.11449 0.08733,0.0946 -0.04526,-0.0239 -0.07378,-0.0714 -0.110588,-0.10697 -0.0027,-0.005 -0.314838,-0.4576 -0.232026,-0.59376 0.0719,-0.11823 0.110366,-0.17787 0.159163,-0.25632 -0.03581,-0.079 -0.06946,-0.15856 -0.09922,-0.24029 -0.260424,-0.71562 0.08703,-1.16229 0.486791,-1.11725 0.239861,0.027 0.498427,0.23094 0.655775,0.65991 0.10106,0.27553 0.249891,0.52964 0.383956,0.78962 0.01643,0.0328 0.03276,0.0653 0.04909,0.0982 0.0083,0.0167 0.0168,0.0333 0.02479,0.0501 0.253003,0.0213 0.263346,0.12899 0.16123,0.27647 5.29e-4,7.9e-4 0.0011,0.001 0.0016,0.002 0.0039,0.007 0.0039,0.007 0.0078,0.0129 1.3e-4,-0.001 0.0011,5.3e-4 0.0011,-0.002 0.04212,0.0537 0.08389,0.10774 0.123507,0.16381 -0.0072,-7.9e-4 -0.02183,-0.005 -0.03101,-0.007 0.01122,0.0183 0.02569,0.0435 0.03514,0.0584 0.02803,0.005 0.05003,0.0143 0.0739,0.0222 v -7.90236 H 40.81301 c -0.0039,0.0244 -0.007,0.0295 0.01757,0.0724 0.0047,0.0167 0.01127,0.0331 0.01447,0.0501 0.0061,0.0327 0.01005,0.0658 0.01497,0.0987 0.0089,0.0146 5.29e-4,8e-4 0.01654,0.0269 0.127165,0.20728 0.160044,0.48101 0.106453,0.71882 0.0013,0.0504 0.004,0.10714 0.0036,0.12867 -0.0011,0.0569 -5.29e-4,0.11415 -5.29e-4,0.17105 0.03535,0.31518 -0.484847,0.87179 -0.798402,0.68988 -0.181814,-0.10548 -0.312163,-0.28134 -0.468188,-0.4222 -0.01365,-0.0859 -0.0205,-0.17327 -0.04082,-0.25786 -0.0075,-0.031 0.0034,0.0634 0.0016,0.0951 -2.04e-4,0.005 -0.0058,-0.007 -0.0067,-0.0124 -0.0078,-0.0391 -0.01397,-0.0786 -0.0217,-0.11782 -0.593207,0.73104 -1.436582,0.20562 -0.938959,-0.78962 0.0205,-0.041 0.04747,-0.0793 0.0615,-0.12299 0.0024,-0.007 -0.01651,-0.004 -0.02222,5.3e-4 -0.0079,0.007 -0.01357,0.0385 -0.01188,0.0284 0.01222,-0.0741 -0.004,-0.16448 0.03721,-0.22427 -0.0056,-0.0372 -0.0043,-0.0865 -0.0047,-0.13333 z m 0.867649,0.59428 c -0.117436,0.092 -0.218216,0.19359 -0.254249,0.33228 -0.03297,0.12689 0.09126,0.0329 0.239779,-0.10335 5.29e-4,-0.009 0.0013,-0.0224 0.0016,-0.03 -0.0026,-0.0633 0.01011,-0.13222 0.01291,-0.19896 z m 4.58163,6.3407 c 0.0077,0.006 0.0094,0.006 0.01551,0.0108 7.94e-4,2.2e-4 0.0011,2.4e-4 0.0021,5.3e-4 0.0067,0.002 -0.01188,-0.007 -0.01757,-0.0114 z m -6.692098,0.3514 c -0.01947,0.007 -0.03729,0.0153 -0.04857,0.0238 -0.01363,0.0103 -0.02283,0.0212 -0.03566,0.0315 0.02783,-0.0179 0.05775,-0.0395 0.08423,-0.0553 z m 5.923672,0.0744 c -0.0098,0.0195 -0.01968,0.0426 -0.02532,0.0563 -0.03075,0.0746 -0.07156,0.15133 -0.06976,0.23203 0.0016,0.068 0.01551,0.13495 0.03411,0.20102 -0.0027,-0.004 -0.0026,-0.006 0.0057,-0.004 0.118602,0.0214 0.235913,0.10325 0.350883,0.14366 -0.02508,-0.071 -0.05206,-0.14122 -0.07803,-0.21187 -0.07168,-0.13937 -0.146508,-0.27722 -0.217556,-0.41703 z m -6.910692,0.12248 c -0.0013,2.6e-4 -0.0028,1.4e-4 -0.0041,5.3e-4 -0.03182,0.0232 -0.126814,0.0932 -0.0956,0.0692 0.0336,-0.0258 0.06694,-0.0457 0.09973,-0.0698 z m 1.228868,0.36638 c -7.94e-4,0.004 -0.0027,0.009 -0.0036,0.0129 0.0576,0.01 0.07444,0.011 0.0036,-0.0129 z m 0.259932,0.28991 c -0.0099,-0.003 -0.02331,0.003 -0.04082,0.0212 -0.05268,0.0555 -0.08209,0.12462 -0.104902,0.19792 0.03301,-0.006 0.06427,-0.0139 0.09095,-0.0284 -0.01281,0.0153 -0.0281,0.0325 -0.03721,0.046 0.03239,-0.007 0.06465,-0.0133 0.09612,-0.0217 0.02307,-0.11148 0.02474,-0.20435 -0.0041,-0.21498 z m 0.0016,0.14314 c -0.01434,0.0207 -0.03339,0.0344 -0.05426,0.046 0.01037,-0.0126 0.01524,-0.022 0.03152,-0.0393 0.0055,-0.006 0.02732,-0.0134 0.02273,-0.007 z m 0,0.0848 c -0.04062,0.0361 -0.08281,0.0697 -0.128675,0.0987 -0.0058,0.004 -0.01828,0.006 -0.02585,0.01 -0.0092,0.0161 -0.01331,0.0228 -0.02635,0.0444 v 5.3e-4 c -0.004,0.007 -0.0084,0.0115 -0.01241,0.0181 -0.01659,0.084 -0.03243,0.16857 -0.06305,0.24546 0.02281,-0.009 0.04572,-0.0186 0.06615,-0.031 0.08589,-0.0524 0.156861,-0.23369 0.190169,-0.38602 z m -1.302763,0.5302 c -0.07513,0.0536 -0.148847,0.094 -0.22066,0.12403 0.252828,0.44149 0.476041,1.02585 0.555006,0.34519 0.02045,-0.17618 -0.01027,-0.25861 -0.08681,-0.32349 -0.07618,-0.0217 -0.144103,-0.0628 -0.199988,-0.11989 -0.01429,-0.007 -0.0325,-0.0179 -0.04754,-0.0258 z" />
    </clipPath>
    <marker
       style="overflow:visible"
       id="marker1899-7"
       refX="0"
       refY="0"
       orient="auto"
       inkscape:stockid="Arrow1Mend"
       inkscape:isstock="true">
      <path
         transform="matrix(-0.4,0,0,-0.4,-4,0)"
         style="fill:#000000;fill-opacity:1;fill-rule:evenodd;stroke:#000000;stroke-width:1pt;stroke-opacity:1"
         d="M 0,0 5,-5 -12.5,0 5,5 Z"
         id="path1897-1" />
    </marker>
    <marker
       style="overflow:visible"
       id="marker1899-3"
       refX="0"
       refY="0"
       orient="auto"
       inkscape:stockid="Arrow1Mend"
       inkscape:isstock="true">
      <path
         transform="matrix(-0.4,0,0,-0.4,-4,0)"
         style="fill:#000000;fill-opacity:1;fill-rule:evenodd;stroke:#000000;stroke-width:1pt;stroke-opacity:1"
         d="M 0,0 5,-5 -12.5,0 5,5 Z"
         id="path1897-2" />
    </marker>
  </defs>
  <sodipodi:namedview
     id="base"
     pagecolor="#ffffff"
     bordercolor="#666666"
     borderopacity="1.0"
     inkscape:pageopacity="0.0"
     inkscape:pageshadow="2"
     inkscape:zoom="6.0801233"
     inkscape:cx="173.83122"
     inkscape:cy="459.5668"
     inkscape:document-units="mm"
     inkscape:current-layer="layer1"
     inkscape:document-rotation="0"
     showgrid="true"
     inkscape:window-width="1267"
     inkscape:window-height="1040"
     inkscape:window-x="150"
     inkscape:window-y="0"
     inkscape:window-maximized="0">
    <inkscape:grid
       type="xygrid"
       id="grid3421" />
  </sodipodi:namedview>
  <metadata
     id="metadata5">
    <rdf:RDF>
      <cc:Work
         rdf:about="">
        <dc:format>image/svg+xml</dc:format>
        <dc:type
           rdf:resource="http://purl.org/dc/dcmitype/StillImage" />
        <dc:title></dc:title>
      </cc:Work>
    </rdf:RDF>
  </metadata>
  <g
     inkscape:label="Layer 1"
     inkscape:groupmode="layer"
     id="layer1">
    <text
       xml:space="preserve"
       style="font-size:1.41111px;line-height:1.25;font-family:sans-serif;opacity:1;stroke-width:0.264583"
       x="38.647137"
       y="118.86899"
       id="text835"><tspan
         sodipodi:role="line"
         id="tspan833"
         x="38.647137"
         y="118.86899"
         style="stroke-width:0.264583">1</tspan></text>
    <text
       xml:space="preserve"
       style="font-size:1.41111px;line-height:1.25;font-family:sans-serif;opacity:1;stroke-width:0.265;stroke-miterlimit:4;stroke-dasharray:none"
       x="45.150166"
       y="118.88731"
       id="text1809"><tspan
         sodipodi:role="line"
         id="tspan1807"
         x="45.150166"
         y="118.88731"
         style="stroke-width:0.265;stroke-miterlimit:4;stroke-dasharray:none">2</tspan></text>
    <path
       style="fill:none;stroke:#000000;stroke-width:0.1;stroke-linecap:butt;stroke-linejoin:miter;stroke-miterlimit:4;stroke-dasharray:none;stroke-opacity:1;marker-end:url(#marker1871)"
       d="m 51.59375,119.0625 -2.116667,2.91042"
       id="path1837"
       inkscape:path-effect="#path-effect1839"
       inkscape:original-d="m 51.59375,119.0625 c -0.812035,1.11718 -1.304103,1.79377 -2.116667,2.91042"
       sodipodi:nodetypes="cc" />
    <path
       style="fill:none;stroke:#000000;stroke-width:0.103424;stroke-linecap:butt;stroke-linejoin:miter;stroke-miterlimit:4;stroke-dasharray:none;stroke-opacity:1;marker-end:url(#marker1899)"
       d="m 39.6875,118.26875 h 0.279282 4.747801"
       id="path1841"
       inkscape:path-effect="#path-effect1843"
       inkscape:original-d="m 39.6875,118.26875 c 0.09338,2.7e-4 0.18647,2.7e-4 0.279282,0 0.09282,-2.6e-4 3.165484,2.7e-4 4.747801,0" />
    <path
       style="fill:none;stroke:#000000;stroke-width:0.0977848;stroke-linecap:butt;stroke-linejoin:miter;stroke-miterlimit:4;stroke-dasharray:none;stroke-opacity:1;marker-end:url(#Arrow1Mend)"
       d="M 48.41875,121.97292 46.302083,119.0625"
       id="path1845"
       inkscape:path-effect="#path-effect1847"
       inkscape:original-d="m 48.41875,121.97292 c -0.541634,-1.01568 -2.124027,-15.77181 -2.116667,-2.91042"
       sodipodi:nodetypes="cc" />
    <text
       xml:space="preserve"
       style="font-size:1.41111px;line-height:1.25;font-family:sans-serif;stroke-width:0.264583"
       x="48.455193"
       y="122.89278"
       id="text1933"><tspan
         sodipodi:role="line"
         id="tspan1931"
         x="48.455193"
         y="122.89278"
         style="stroke-width:0.264583">4</tspan></text>
    <path
       style="fill:none;stroke:#000000;stroke-width:0.103424;stroke-linecap:butt;stroke-linejoin:miter;stroke-miterlimit:4;stroke-dasharray:none;stroke-opacity:1;marker-end:url(#marker1899-3)"
       d="m 46.302083,118.26875 h 0.279282 4.747802"
       id="path1841-2"
       inkscape:path-effect="#path-effect2148"
       inkscape:original-d="m 46.302083,118.26875 c 0.09338,2.7e-4 0.18647,2.7e-4 0.279282,0 0.09282,-2.6e-4 3.165484,2.7e-4 4.747802,0" />
    <text
       xml:space="preserve"
       style="font-size:1.41111px;line-height:1.25;font-family:sans-serif;stroke-width:0.264583"
       x="51.784443"
       y="118.88731"
       id="text3461"><tspan
         sodipodi:role="line"
         id="tspan3459"
         x="51.784443"
         y="118.88731"
         style="stroke-width:0.264583">3</tspan></text>
  </g>
</svg>
